<svg xmlns="http://www.w3.org/2000/svg" xmlns:xlink="http://www.w3.org/1999/xlink" width="100%" height="100%" viewBox="0 0 3208 1600" version="1.1" xml:space="preserve" style="fill-rule:evenodd;clip-rule:evenodd;stroke-linejoin:round;stroke-miterlimit:1.41421;">
    <g>
        <path d="M68.4583,821L621.208,833.861C817.958,914.681 1072.1,927.556 1233.69,963.861C1086.14,960.347 738.319,1013.04 725.444,1014.21C577.889,1025.92 120,1110.25 68.4583,821Z" style="fill:rgb(101,170,209);fill-rule:nonzero;"/>
        <path d="M367.097,496.597C450.25,472 792.208,501.278 902.278,510.653C1040.47,774.139 1433.96,925.208 1526.47,1090.33L1529.99,1104.39C1294.61,782.333 500.597,1063.4 367.097,496.597Z" style="fill:rgb(101,170,209);fill-rule:nonzero;"/>
        <path d="M868.333,173.375C930.389,221.389 1220.83,325.611 1350.82,361.93L1519.74,1048.47C1248.06,754.528 812.111,678.125 868.333,173.375Z" style="fill:rgb(101,170,209);fill-rule:nonzero;"/>
        <path d="M1302.35,6.62498C1427.13,46.736 1758.42,275.514 1831.21,336.417C1820.81,410.694 1734.64,700.375 1709.39,747.917C1684.14,795.458 1570.21,1181.83 1570.21,1238.29C1533.07,959 1467.25,780.583 1422.68,578.556C1378.11,376.528 1305.32,66.0417 1302.35,6.62498Z" style="fill:rgb(101,170,209);fill-rule:nonzero;"/>
        <path d="M1886.01,2.7916C1987.75,131.319 2191.24,297.319 2282.28,374.083C2203.75,627.556 2082.35,770.361 1964.54,848.903C1902.07,916.722 1677.15,947.069 1609.32,1134.51C1641.46,925.653 1737.85,754.292 1777.13,609.708C1816.39,465.111 1903.86,168.806 1886.01,2.7916Z" style="fill:rgb(101,170,209);fill-rule:nonzero;"/>
        <path d="M2351.9,109.903C2423.31,175.944 2582.17,390.139 2607.15,466.903C2435.79,697.167 2210.87,816.764 1875.29,929.222C2260.86,709.667 2325.13,349.097 2351.9,109.903Z" style="fill:rgb(101,170,209);fill-rule:nonzero;"/>
        <path d="M2717.83,299.111C2762.46,377.639 2841,622.194 2844.56,693.597C2644.64,866.75 2330.47,981 1869.93,948.861C2273.35,845.319 2633.93,572.222 2717.83,299.111Z" style="fill:rgb(101,170,209);fill-rule:nonzero;"/>
        <path d="M2041.88,972.903C2428.03,942.625 2692.22,909.597 2977.51,579.375L2960.08,840.806C2858.25,921.528 2634.87,1016 2375.75,1016L2041.88,972.903Z" style="fill:rgb(101,170,209);fill-rule:nonzero;"/>
        <path d="M2468.4,1029.76C2610.58,1017.83 2877.53,962.806 3078.42,769.25C3073.82,841.722 3046.31,1075.62 2891.28,1082.06L2468.4,1029.76Z" style="fill:rgb(101,170,209);fill-rule:nonzero;"/>
        <path d="M167.014,823.903L621.208,833.861C817.958,914.681 1072.1,927.556 1233.69,963.861C1086.14,960.347 747.542,961.972 734.653,963.139C587.097,974.847 241.986,973.847 167.014,823.903Z" style="fill:url(#tag1);"/>
        <path d="M584.708,491.889C673.958,491.889 792.208,501.278 902.278,510.653C1040.47,774.139 1433.96,925.208 1526.47,1090.33L1529.99,1104.39C1294.61,782.333 666.819,813.208 584.708,491.889Z" style="fill:url(#tag2);"/>
        <path d="M1023.83,249.125C1095.24,288.403 1220.83,325.611 1350.82,361.93L1519.74,1048.47C1348.71,627.556 1113.08,727.514 1023.83,249.125Z" style="fill:url(#tag3);"/>
        <path d="M1605.76,181.292C1727.14,245.569 1758.42,275.514 1831.21,336.417C1820.81,410.694 1734.64,700.375 1709.39,747.917C1684.14,795.458 1570.21,1181.83 1570.21,1238.29C1533.07,959 1536.33,866.389 1545.06,659.681C1555.78,406.208 1608.72,240.722 1605.76,181.292Z" style="fill:url(#tag4);"/>
        <path d="M2119.85,241.986C2201.94,316.958 2191.24,297.319 2282.28,374.083C2203.75,627.556 2082.35,770.361 1964.54,848.903C1902.07,916.722 1677.15,947.069 1609.32,1134.51C1684.29,877.458 1854.11,768.875 1959.19,652.542C2059.14,541.875 2137.71,407.986 2119.85,241.986Z" style="fill:url(#tag5);"/>
        <path d="M2483.99,274.111C2541.1,352.653 2569.68,402.639 2607.15,466.903C2435.79,697.167 2210.87,816.764 1875.29,929.222C2273.35,731.083 2457.21,513.306 2483.99,274.111Z" style="fill:url(#tag6);"/>
        <path d="M2794.6,499.042C2819.57,588.292 2830.29,620.417 2844.56,693.597C2644.64,866.75 2330.47,981 1869.93,948.861C2309.06,898.875 2710.68,772.139 2794.6,499.042Z" style="fill:url(#tag7);"/>
        <path d="M2041.88,972.903C2530.42,1013.12 2755.31,895.319 2965.96,723.944L2960.08,840.806C2858.25,921.528 2634.87,1016 2375.75,1016L2041.88,972.903Z" style="fill:url(#tag8);"/>
        <path d="M2468.4,1029.76C2694.63,991.694 2969.29,1013.08 3051.4,920.264C3020.33,1011.64 2979.72,1075.54 2891.28,1082.06L2468.4,1029.76Z" style="fill:url(#tag9);"/>
        <path d="M292.444,1583.75C255.792,1594.58 221.25,1600 188.861,1600C132.194,1600 86.5556,1586 51.9306,1557.99C17.3056,1529.97 0,1493.12 0,1447.49C0,1401.21 17.2083,1363.72 51.6528,1335.03C86.0833,1306.32 131.083,1291.97 186.625,1291.97C218.111,1291.97 251.806,1296.4 287.722,1305.25L287.722,1346.71C251.069,1332.82 216.806,1325.86 184.958,1325.86C148.125,1325.86 117.792,1337.01 94.0139,1359.29C70.2083,1381.6 58.3194,1410 58.3194,1444.5C58.3194,1479.31 71.7361,1507.79 98.5833,1529.93C125.431,1552.07 159.958,1563.14 202.194,1563.14C227.736,1563.14 257.819,1557.64 292.444,1546.65L292.444,1583.75Z" style="fill:rgb(61,127,156);fill-rule:nonzero;"/>
        <path d="M415.472,1485.5L545.569,1485.5L480.194,1345.1L415.472,1485.5ZM317.722,1592.9L458.25,1299.07L512.958,1299.07L653.5,1592.9L595.583,1592.9L561.931,1519.39L399.097,1519.39L364.889,1592.9L317.722,1592.9Z" style="fill:rgb(61,127,156);fill-rule:nonzero;"/>
        <path d="M683.208,1592.9L683.208,1299.07L749.042,1299.07L827.361,1480L827.917,1480L904.847,1299.07L973.458,1299.07L973.458,1592.9L928.736,1592.9L928.736,1340.75L928.181,1340.75L847.917,1530.85L801.806,1530.85L721.819,1346.01L721.264,1346.01L721.264,1592.9L683.208,1592.9Z" style="fill:rgb(61,127,156);fill-rule:nonzero;"/>
        <path d="M1477.57,1583.75C1440.89,1594.58 1406.36,1600 1373.96,1600C1317.31,1600 1271.67,1586 1237.04,1557.99C1202.42,1529.97 1185.11,1493.12 1185.11,1447.49C1185.11,1401.21 1202.32,1363.72 1236.76,1335.03C1271.21,1306.32 1316.19,1291.97 1371.75,1291.97C1403.21,1291.97 1436.9,1296.4 1472.83,1305.25L1472.83,1346.71C1436.17,1332.82 1401.92,1325.86 1370.07,1325.86C1333.22,1325.86 1302.9,1337.01 1279.13,1359.29C1255.32,1381.6 1243.43,1410 1243.43,1444.5C1243.43,1479.31 1256.85,1507.79 1283.71,1529.93C1310.54,1552.07 1345.07,1563.14 1387.29,1563.14C1412.83,1563.14 1442.93,1557.64 1477.57,1546.65L1477.57,1583.75Z" style="fill:rgb(61,127,156);fill-rule:nonzero;"/>
        <path d="M1600.57,1485.5L1730.67,1485.5L1665.31,1345.1L1600.57,1485.5ZM1502.83,1592.9L1643.36,1299.07L1698.08,1299.07L1838.61,1592.9L1780.69,1592.9L1747.06,1519.39L1584.21,1519.39L1550,1592.9L1502.83,1592.9Z" style="fill:rgb(61,127,156);fill-rule:nonzero;"/>
        <path d="M1883.32,1592.9L1883.32,1298.15L1935.25,1298.15L2098.57,1511.65L2099.11,1511.65L2099.11,1298.15L2143.83,1298.15L2143.83,1592.9L2093.29,1592.9L1928.88,1377.43L1928.04,1377.43L1928.04,1592.9L1883.32,1592.9Z" style="fill:rgb(61,127,156);fill-rule:nonzero;"/>
        <path d="M2505.71,1583.75C2469.06,1594.58 2434.54,1600 2402.13,1600C2345.49,1600 2299.82,1586 2265.19,1557.99C2230.58,1529.97 2213.28,1493.12 2213.28,1447.49C2213.28,1401.21 2230.5,1363.72 2264.93,1335.03C2299.38,1306.32 2344.36,1291.97 2399.92,1291.97C2431.38,1291.97 2465.08,1296.4 2501,1305.25L2501,1346.71C2464.35,1332.82 2430.08,1325.86 2398.25,1325.86C2361.39,1325.86 2331.07,1337.01 2307.29,1359.29C2283.49,1381.6 2271.6,1410 2271.6,1444.5C2271.6,1479.31 2285.01,1507.79 2311.86,1529.93C2338.71,1552.07 2373.25,1563.14 2415.46,1563.14C2441.01,1563.14 2471.08,1557.64 2505.71,1546.65L2505.71,1583.75Z" style="fill:rgb(61,127,156);fill-rule:nonzero;"/>
        <path d="M2587.67,1592.9L2587.67,1299.07L2828.44,1299.07L2828.44,1332.96L2642.36,1332.96L2642.36,1422.06L2800.13,1422.06L2800.13,1455.96L2642.36,1455.96L2642.36,1559.01L2841.22,1559.01L2841.22,1592.9L2587.67,1592.9Z" style="fill:rgb(61,127,156);fill-rule:nonzero;"/>
        <path d="M2976.21,1436.71L3005.08,1436.71C3034.54,1436.71 3057.88,1431.36 3075.08,1420.65C3092.29,1409.93 3100.9,1395.47 3100.9,1377.26C3100.9,1360.28 3094.42,1348.65 3081.46,1342.37C3068.5,1336.1 3044.63,1332.96 3009.81,1332.96L2976.21,1332.96L2976.21,1436.71ZM2921.49,1592.9L2921.49,1299.07L3021.19,1299.07C3062.67,1299.07 3091.46,1301.89 3107.56,1307.54C3142,1319.31 3159.24,1340.07 3159.24,1369.83C3159.24,1390.29 3153.25,1407.36 3141.28,1421.03C3129.33,1434.69 3109.33,1447.4 3081.33,1459.15L3204.35,1592.9L3138.13,1592.9L3025.63,1470.61L2976.21,1470.61L2976.21,1592.9L2921.49,1592.9Z" style="fill:rgb(61,127,156);fill-rule:nonzero;"/>
        <rect x="1012.58" y="1433.49" width="135.417" height="44.75" style="fill:rgb(61,127,156);fill-rule:nonzero;"/>
    </g>
    <defs>
        <radialGradient id="tag1" cx="0" cy="0" r="1" gradientUnits="userSpaceOnUse" gradientTransform="matrix(1078.13,10.0221,-62.5004,172.881,181.299,831.042)"><stop offset="0%" style="stop-color:rgb(100,170,209);stop-opacity:1"/><stop offset="100%" style="stop-color:rgb(61,128,157);stop-opacity:1"/></radialGradient>
        <radialGradient id="tag2" cx="0" cy="0" r="1" gradientUnits="userSpaceOnUse" gradientTransform="matrix(938.929,130.523,-614.05,199.58,588.292,488.312)"><stop offset="0%" style="stop-color:rgb(100,170,209);stop-opacity:1"/><stop offset="100%" style="stop-color:rgb(61,128,157);stop-opacity:1"/></radialGradient>
        <radialGradient id="tag3" cx="0" cy="0" r="1" gradientUnits="userSpaceOnUse" gradientTransform="matrix(485.533,189.321,-796.129,115.46,1030.98,252.685)"><stop offset="0%" style="stop-color:rgb(100,170,209);stop-opacity:1"/><stop offset="100%" style="stop-color:rgb(61,128,157);stop-opacity:1"/></radialGradient>
        <radialGradient id="tag4" cx="0" cy="0" r="1" gradientUnits="userSpaceOnUse" gradientTransform="matrix(-67.8312,269.752,-1049.61,-17.4328,1645.04,195.563)"><stop offset="0%" style="stop-color:rgb(100,170,209);stop-opacity:1"/><stop offset="100%" style="stop-color:rgb(61,128,157);stop-opacity:1"/></radialGradient>
        <radialGradient id="tag5" cx="0" cy="0" r="1" gradientUnits="userSpaceOnUse" gradientTransform="matrix(-617.625,169.398,-810.408,-129.101,2219.81,324.095)"><stop offset="0%" style="stop-color:rgb(100,170,209);stop-opacity:1"/><stop offset="100%" style="stop-color:rgb(61,128,157);stop-opacity:1"/></radialGradient>
        <radialGradient id="tag6" cx="0" cy="0" r="1" gradientUnits="userSpaceOnUse" gradientTransform="matrix(-696.158,88.1983,-553.358,-110.959,2566.1,391.923)"><stop offset="0%" style="stop-color:rgb(100,170,209);stop-opacity:1"/><stop offset="100%" style="stop-color:rgb(61,128,157);stop-opacity:1"/></radialGradient>
        <radialGradient id="tag7" cx="0" cy="0" r="1" gradientUnits="userSpaceOnUse" gradientTransform="matrix(-963.908,54.8313,-339.152,-155.837,2833.85,613.271)"><stop offset="0%" style="stop-color:rgb(100,170,209);stop-opacity:1"/><stop offset="100%" style="stop-color:rgb(61,128,157);stop-opacity:1"/></radialGradient>
        <radialGradient id="tag8" cx="0" cy="0" r="1" gradientUnits="userSpaceOnUse" gradientTransform="matrix(-931.767,19.9807,-185.639,-100.288,2965.96,798.912)"><stop offset="0%" style="stop-color:rgb(100,170,209);stop-opacity:1"/><stop offset="100%" style="stop-color:rgb(61,128,157);stop-opacity:1"/></radialGradient>
        <radialGradient id="tag9" cx="0" cy="0" r="1" gradientUnits="userSpaceOnUse" gradientTransform="matrix(-562.496,16.8416,-111.8,-84.7342,3055,927.25)"><stop offset="0%" style="stop-color:rgb(100,170,209);stop-opacity:1"/><stop offset="100%" style="stop-color:rgb(61,128,157);stop-opacity:1"/></radialGradient>
    </defs>
</svg>