<svg xmlns="http://www.w3.org/2000/svg" xmlns:xlink="http://www.w3.org/1999/xlink" width="100%" height="100%" viewBox="0 0 1437 454" version="1.1" xml:space="preserve" style="fill-rule:evenodd;clip-rule:evenodd;stroke-linejoin:round;stroke-miterlimit:1.41421;">
    <g>
        <path d="M24.7361,251.653L53.3333,251.653C87.5417,251.653 111.25,249.556 124.486,245.361C143.097,239.389 157.736,228.667 168.389,213.153C179.042,197.639 184.375,178.667 184.375,156.25C184.375,132.736 178.597,112.639 167.042,95.9722C155.5,79.2917 139.403,67.8611 118.764,61.6805C103.292,57.0555 77.7778,54.7222 42.2361,54.7222L24.7361,54.7222L24.7361,251.653ZM0,279.403L0,25.4583L52.75,25.4583C90.8194,25.4583 118.444,28.5139 135.625,34.625C160.306,43.25 179.597,58.2083 193.5,79.5C207.389,100.792 214.347,126.167 214.347,155.625C214.347,181.069 208.833,203.444 197.819,222.778C186.806,242.125 172.5,256.375 154.917,265.597C137.333,274.806 112.681,279.403 80.9583,279.403L0,279.403Z" style="fill:rgb(108,111,117);fill-rule:nonzero;"/>
        <path d="M543.306,25.4583L568.611,25.4583L568.611,140.597L706,140.597L706,25.4583L731.319,25.4583L731.319,279.403L706,279.403L706,165.444L568.611,165.444L568.611,279.403L543.306,279.403L543.306,25.4583Z" style="fill:rgb(108,111,117);fill-rule:nonzero;"/>
        <path d="M898.375,49.25C880.542,49.25 863.639,53.9583 847.653,63.3889C831.694,72.8194 819.222,85.5139 810.25,101.486C801.292,117.472 796.792,135.278 796.792,154.917C796.792,183.972 806.722,208.528 826.569,228.542C846.431,248.569 870.361,258.583 898.375,258.583C917.083,258.583 934.389,253.972 950.306,244.778C966.222,235.556 978.639,222.972 987.542,207C996.458,191.028 1000.93,173.278 1000.93,153.75C1000.93,134.333 996.458,116.778 987.542,101.083C978.639,85.375 966.069,72.8194 949.889,63.3889C933.708,53.9583 916.528,49.25 898.375,49.25ZM897.306,25.4583C933.806,25.4583 964.361,37.8333 988.944,62.5416C1013.53,87.2639 1025.83,117.694 1025.83,153.833C1025.83,189.639 1013.56,220 989.028,244.944C964.486,269.889 934.583,282.347 899.278,282.347C863.542,282.347 833.361,269.944 808.792,245.097C784.194,220.278 771.889,190.25 771.889,155C771.889,131.486 777.5,109.708 788.694,89.6528C799.903,69.5833 815.167,53.875 834.514,42.5139C853.861,31.1389 874.792,25.4583 897.306,25.4583Z" style="fill:rgb(108,111,117);fill-rule:nonzero;"/>
        <path d="M1417.35,336.042C1417.35,357.306 1400.12,374.528 1378.86,374.528C1357.6,374.528 1340.36,357.306 1340.36,336.042C1340.36,314.792 1357.6,297.542 1378.86,297.542C1400.12,297.542 1417.35,314.792 1417.35,336.042Z" style="fill:rgb(26,90,169);fill-rule:nonzero;"/>
        <path d="M1417,245.542C1417,266.819 1399.76,284.042 1378.5,284.042C1357.25,284.042 1340.01,266.819 1340.01,245.542C1340.01,224.292 1357.25,207.056 1378.5,207.056C1399.76,207.056 1417,224.292 1417,245.542Z" style="fill:rgb(26,90,169);fill-rule:nonzero;"/>
        <path d="M1288.36,297.542C1309.64,297.542 1326.86,314.778 1326.86,336.042C1326.86,357.306 1309.64,374.528 1288.36,374.528C1267.11,374.528 1249.88,357.306 1249.88,336.042C1249.88,314.778 1267.11,297.542 1288.36,297.542Z" style="fill:rgb(26,90,169);fill-rule:nonzero;"/>
        <path d="M1107.38,297.194C1128.65,297.194 1145.88,314.417 1145.88,335.681C1145.88,356.944 1128.65,374.181 1107.38,374.181C1086.13,374.181 1068.89,356.944 1068.89,335.681C1068.89,314.417 1086.13,297.194 1107.38,297.194Z" style="fill:rgb(26,90,169);fill-rule:nonzero;"/>
        <path d="M1197.88,297.194C1219.14,297.194 1236.36,314.417 1236.36,335.681C1236.36,356.944 1219.14,374.181 1197.88,374.181C1176.63,374.181 1159.38,356.944 1159.38,335.681C1159.38,314.417 1176.63,297.194 1197.88,297.194Z" style="fill:rgb(26,90,169);fill-rule:nonzero;"/>
        <path d="M1107.38,25.8889C1128.65,25.8889 1145.88,43.1111 1145.88,64.375C1145.88,85.6389 1128.65,102.875 1107.38,102.875C1086.13,102.875 1068.89,85.6389 1068.89,64.375C1068.89,43.1111 1086.13,25.8889 1107.38,25.8889Z" style="fill:rgb(26,90,169);fill-rule:nonzero;"/>
        <path d="M1197.88,25.8889C1219.14,25.8889 1236.36,43.1111 1236.36,64.375C1236.36,85.6389 1219.14,102.875 1197.88,102.875C1176.63,102.875 1159.38,85.6389 1159.38,64.375C1159.38,43.1111 1176.63,25.8889 1197.88,25.8889Z" style="fill:rgb(26,90,169);fill-rule:nonzero;"/>
        <path d="M1412.19,30.6111C1417.71,51.1667 1405.51,72.2639 1384.97,77.7639C1364.44,83.2639 1343.33,71.0972 1337.83,50.5417C1332.33,30.0139 1344.53,8.90277 1365.04,3.40277C1385.6,-2.11112 1406.69,10.0972 1412.19,30.6111Z" style="fill:rgb(226,30,59);fill-rule:nonzero;"/>
        <path d="M1435.63,118.028C1441.12,138.583 1428.94,159.667 1408.4,165.167C1387.86,170.667 1366.75,158.5 1361.25,137.958C1355.75,117.431 1367.93,96.3056 1388.47,90.8194C1409.01,85.3055 1430.11,97.5 1435.63,118.028Z" style="fill:rgb(226,30,59);fill-rule:nonzero;"/>
        <path d="M1277.68,27C1298.24,21.4861 1319.33,33.6666 1324.83,54.2083C1330.33,74.75 1318.15,95.8472 1297.61,101.361C1277.08,106.861 1255.97,94.6805 1250.46,74.1389C1244.97,53.5972 1257.17,32.5 1277.68,27Z" style="fill:rgb(226,30,59);fill-rule:nonzero;"/>
        <path d="M1301.11,114.403C1321.65,108.903 1342.75,121.083 1348.25,141.625C1353.75,162.167 1341.58,183.264 1321.04,188.778C1300.5,194.278 1279.4,182.083 1273.89,161.556C1268.39,141 1280.57,119.903 1301.11,114.403Z" style="fill:rgb(226,30,59);fill-rule:nonzero;"/>
        <path d="M1107.38,116.389C1128.65,116.389 1145.88,133.611 1145.88,154.875C1145.88,176.139 1128.65,193.375 1107.38,193.375C1086.13,193.375 1068.89,176.139 1068.89,154.875C1068.89,133.611 1086.13,116.389 1107.38,116.389Z" style="fill:rgb(26,90,169);fill-rule:nonzero;"/>
        <path d="M1197.88,116.389C1219.14,116.389 1236.36,133.611 1236.36,154.875C1236.36,176.139 1219.14,193.375 1197.88,193.375C1176.63,193.375 1159.38,176.139 1159.38,154.875C1159.38,133.611 1176.63,116.389 1197.88,116.389Z" style="fill:rgb(26,90,169);fill-rule:nonzero;"/>
        <path d="M1288.36,207.222C1309.64,207.222 1326.86,224.458 1326.86,245.722C1326.86,266.986 1309.64,284.222 1288.36,284.222C1267.11,284.222 1249.88,266.986 1249.88,245.722C1249.88,224.458 1267.11,207.222 1288.36,207.222Z" style="fill:rgb(26,90,169);fill-rule:nonzero;"/>
        <path d="M1107.38,206.875C1128.65,206.875 1145.88,224.097 1145.88,245.361C1145.88,266.625 1128.65,283.861 1107.38,283.861C1086.13,283.861 1068.89,266.625 1068.89,245.361C1068.89,224.097 1086.13,206.875 1107.38,206.875Z" style="fill:rgb(26,90,169);fill-rule:nonzero;"/>
        <path d="M1197.88,206.875C1219.14,206.875 1236.36,224.097 1236.36,245.361C1236.36,266.625 1219.14,283.861 1197.88,283.861C1176.63,283.861 1159.38,266.625 1159.38,245.361C1159.38,224.097 1176.63,206.875 1197.88,206.875Z" style="fill:rgb(26,90,169);fill-rule:nonzero;"/>
        <path d="M501.389,140.597L476.319,140.597L373.097,140.597L373.097,165.403L476.458,165.403C475.014,180.389 470.778,194.264 463.681,207C454.764,222.972 442.347,235.556 426.431,244.778C410.514,253.972 393.208,258.583 374.5,258.583C346.486,258.583 322.556,248.569 302.694,228.542C282.861,208.528 272.931,183.972 272.931,154.917C272.931,135.278 277.417,117.472 286.389,101.486C295.347,85.5139 307.819,72.8194 323.792,63.3889C339.764,53.9583 356.667,49.25 374.5,49.25C392.667,49.25 409.833,53.9583 426.028,63.3889C434.083,68.0833 441.25,73.5694 447.5,79.8194L465.014,62.5C440.444,37.8056 409.917,25.4583 373.444,25.4583C350.931,25.4583 330,31.1389 310.639,42.5139C291.292,53.875 276.028,69.5833 264.819,89.6528C253.625,109.708 248.028,131.486 248.028,155C248.028,190.25 260.319,220.278 284.917,245.097C309.5,269.944 339.667,282.347 375.403,282.347C410.708,282.347 440.611,269.889 465.153,244.944C489.681,220 501.958,189.639 501.958,153.819C501.958,149.333 501.778,144.917 501.389,140.597Z" style="fill:rgb(108,111,117);fill-rule:nonzero;"/>
        <path d="M13.8194,371.5C26.6944,371.5 31.9444,364.069 31.9444,352.694C31.9444,339.375 24.0278,333.5 11.0278,333.875L4.56944,333.875L4.56944,371.5L13.8194,371.5ZM12.8056,330.125C27.8333,330.125 36.3889,337.75 36.3889,352.694C36.3889,367.625 27.8333,375.25 12.8056,375.25L0.444444,375.25L0.444444,330.125L12.8056,330.125Z" style="fill:rgb(108,111,117);fill-rule:nonzero;"/>
        <path d="M50.0833,375.25L50.0833,330.125L77.2778,330.125L77.2778,333.875L54.2083,333.875L54.2083,350.069L76.3889,350.069L76.3889,353.819L54.2083,353.819L54.2083,371.5L78.2222,371.5L78.2222,375.25L50.0833,375.25Z" style="fill:rgb(108,111,117);fill-rule:nonzero;"/>
        <path d="M95.7917,330.125L95.7917,359.306C96.1111,367.5 100.861,372.444 108.403,372.444C115.944,372.444 120.708,367.5 121.014,359.306L121.014,330.125L125.139,330.125L125.139,359.375C125.014,369.056 119.5,376.181 108.403,376.181C97.3056,376.181 91.7917,369.056 91.6667,359.375L91.6667,330.125L95.7917,330.125Z" style="fill:rgb(108,111,117);fill-rule:nonzero;"/>
        <path d="M147.278,333.875L132.5,333.875L132.5,330.125L165.972,330.125L165.972,333.875L151.458,333.875L151.389,375.25L147.333,375.25L147.278,333.875Z" style="fill:rgb(108,111,117);fill-rule:nonzero;"/>
        <path d="M187.333,376.181C180.042,376.181 173.903,370.944 173.708,363.5L178.139,363.5C178.264,370.431 183.472,372.444 189.611,372.444C194.75,372.444 200.653,369.5 200.653,363.75C200.653,359.25 197.347,357.125 193.486,355.875C186.069,353.444 174.792,351.125 174.792,341.375C174.792,333.5 182.139,329.194 189.361,329.194C195.389,329.194 203.25,331.25 204.264,339.944L199.819,339.944C199.694,334.375 194.556,332.944 189.875,332.944C185.111,332.944 179.222,335.319 179.222,340.819C179.222,353.625 205.083,347.819 205.083,363.375C205.083,373.194 196.528,376.181 187.333,376.181Z" style="fill:rgb(108,111,117);fill-rule:nonzero;"/>
        <path d="M246.292,340.694C245.528,335.194 240.708,332.944 235.514,332.944C223.792,332.944 220.236,343.444 220.236,352.694C220.236,361.931 223.792,372.444 235.514,372.444C240.583,372.444 245.653,369.931 246.806,364.319L251.236,364.319C249.903,371.875 242.875,376.181 235.514,376.181C221.639,376.181 215.806,365.194 215.806,352.694C215.806,340.319 221.694,329.194 235.514,329.194C243,329.194 250.097,332.569 250.736,340.694L246.292,340.694Z" style="fill:rgb(108,111,117);fill-rule:nonzero;"/>
        <path d="M263.667,375.25L263.667,330.125L267.792,330.125L267.792,349.931L292.764,349.931L292.764,330.125L296.875,330.125L296.875,375.25L292.764,375.25L292.764,353.694L267.792,353.694L267.792,375.25L263.667,375.25Z" style="fill:rgb(108,111,117);fill-rule:nonzero;"/>
        <path d="M312.792,375.25L312.792,330.125L339.986,330.125L339.986,333.875L316.917,333.875L316.917,350.069L339.097,350.069L339.097,353.819L316.917,353.819L316.917,371.5L340.944,371.5L340.944,375.25L312.792,375.25Z" style="fill:rgb(108,111,117);fill-rule:nonzero;"/>
        <path d="M409.028,352.25L409.028,373.375C403.514,375.5 398.5,376.181 392.611,376.181C380.125,376.181 373.083,366.569 373.083,352.694C373.083,341.069 379.361,329.194 392.611,329.194C400.222,329.194 408.014,333.25 408.708,341.25L404.014,341.25C403.194,335.5 398.056,332.944 392.611,332.944C381.639,332.944 377.528,343.319 377.528,352.694C377.528,364.181 382.403,372.444 394.764,372.444C398.194,372.444 401.667,371.5 404.903,370.569L404.903,356L393.431,356L393.431,352.25L409.028,352.25Z" style="fill:rgb(108,111,117);fill-rule:nonzero;"/>
        <path d="M424.431,375.25L424.431,330.125L451.625,330.125L451.625,333.875L428.556,333.875L428.556,350.069L450.75,350.069L450.75,353.819L428.556,353.819L428.556,371.5L452.583,371.5L452.583,375.25L424.431,375.25Z" style="fill:rgb(108,111,117);fill-rule:nonzero;"/>
        <path d="M477.181,376.181C469.889,376.181 463.75,370.944 463.556,363.5L467.986,363.5C468.111,370.431 473.319,372.444 479.458,372.444C484.597,372.444 490.486,369.5 490.486,363.75C490.486,359.25 487.194,357.125 483.333,355.875C475.917,353.444 464.625,351.125 464.625,341.375C464.625,333.5 471.986,329.194 479.208,329.194C485.236,329.194 493.083,331.25 494.097,339.944L489.667,339.944C489.542,334.375 484.403,332.944 479.708,332.944C474.958,332.944 469.069,335.319 469.069,340.819C469.069,353.625 494.931,347.819 494.931,363.375C494.931,373.194 486.375,376.181 477.181,376.181Z" style="fill:rgb(108,111,117);fill-rule:nonzero;"/>
        <path d="M508.25,375.25L508.25,330.125L535.444,330.125L535.444,333.875L512.361,333.875L512.361,350.069L534.556,350.069L534.556,353.819L512.361,353.819L512.361,371.5L536.389,371.5L536.389,375.25L508.25,375.25Z" style="fill:rgb(108,111,117);fill-rule:nonzero;"/>
        <path d="M550.028,375.25L550.028,330.125L554.139,330.125L554.139,371.5L577.153,371.5L577.153,375.25L550.028,375.25Z" style="fill:rgb(108,111,117);fill-rule:nonzero;"/>
        <path d="M588.444,375.25L588.444,330.125L592.569,330.125L592.569,371.5L615.569,371.5L615.569,375.25L588.444,375.25Z" style="fill:rgb(108,111,117);fill-rule:nonzero;"/>
        <path d="M635.306,376.181C628.014,376.181 621.875,370.944 621.681,363.5L626.111,363.5C626.236,370.431 631.431,372.444 637.583,372.444C642.722,372.444 648.611,369.5 648.611,363.75C648.611,359.25 645.319,357.125 641.458,355.875C634.042,353.444 622.75,351.125 622.75,341.375C622.75,333.5 630.111,329.194 637.333,329.194C643.361,329.194 651.208,331.25 652.222,339.944L647.792,339.944C647.667,334.375 642.528,332.944 637.833,332.944C633.083,332.944 627.194,335.319 627.194,340.819C627.194,353.625 653.056,347.819 653.056,363.375C653.056,373.194 644.486,376.181 635.306,376.181Z" style="fill:rgb(108,111,117);fill-rule:nonzero;"/>
        <path d="M694.25,340.694C693.5,335.194 688.681,332.944 683.486,332.944C671.75,332.944 668.208,343.444 668.208,352.694C668.208,361.931 671.75,372.444 683.486,372.444C688.556,372.444 693.625,369.931 694.764,364.319L699.208,364.319C697.875,371.875 690.833,376.181 683.486,376.181C669.597,376.181 663.778,365.194 663.778,352.694C663.778,340.319 669.667,329.194 683.486,329.194C690.958,329.194 698.069,332.569 698.694,340.694L694.25,340.694Z" style="fill:rgb(108,111,117);fill-rule:nonzero;"/>
        <path d="M711.625,375.25L711.625,330.125L715.75,330.125L715.75,349.931L740.736,349.931L740.736,330.125L744.847,330.125L744.847,375.25L740.736,375.25L740.736,353.694L715.75,353.694L715.75,375.25L711.625,375.25Z" style="fill:rgb(108,111,117);fill-rule:nonzero;"/>
        <path d="M785.236,359.306L775.347,333.875L765.264,359.306L785.236,359.306ZM754.875,375.25L773,330.125L777.806,330.125L796.069,375.25L791.569,375.25L786.694,363.069L763.931,363.069L759.111,375.25L754.875,375.25Z" style="fill:rgb(108,111,117);fill-rule:nonzero;"/>
        <path d="M805.778,375.25L805.778,330.125L831.639,330.125L831.639,333.875L809.889,333.875L809.889,349.819L830.875,349.819L830.875,353.569L809.889,353.569L809.889,375.25L805.778,375.25Z" style="fill:rgb(108,111,117);fill-rule:nonzero;"/>
        <path d="M853.833,333.875L839.056,333.875L839.056,330.125L872.528,330.125L872.528,333.875L858.014,333.875L857.944,375.25L853.889,375.25L853.833,333.875Z" style="fill:rgb(108,111,117);fill-rule:nonzero;"/>
        <path d="M903.403,375.25L903.403,330.125L929.264,330.125L929.264,333.875L907.528,333.875L907.528,349.819L928.514,349.819L928.514,353.569L907.528,353.569L907.528,375.25L903.403,375.25Z" style="fill:rgb(108,111,117);fill-rule:nonzero;"/>
        <path d="M961.861,322.819L961.861,317.319L966.542,317.319L966.542,322.819L961.861,322.819ZM950.819,322.819L950.819,317.319L955.514,317.319L955.514,322.819L950.819,322.819ZM946.069,330.125L946.069,359.306C946.389,367.5 951.139,372.444 958.681,372.444C966.222,372.444 970.986,367.5 971.292,359.306L971.292,330.125L975.417,330.125L975.417,359.375C975.292,369.056 969.778,376.181 958.681,376.181C947.597,376.181 942.083,369.056 941.958,359.375L941.958,330.125L946.069,330.125Z" style="fill:rgb(108,111,117);fill-rule:nonzero;"/>
        <path d="M1004.21,350C1010.04,350 1017.26,349.625 1017.26,341.944C1017.26,333.25 1009.01,333.875 1004.65,333.875L995.389,333.875L995.389,350L1004.21,350ZM995.389,375.25L991.278,375.25L991.278,330.125L1006.24,330.125C1010.22,330.125 1013.51,330.375 1017.01,332.5C1020.18,334.375 1021.69,337.625 1021.69,341.944C1021.69,346.806 1018.21,350.319 1012.89,351.625L1012.89,351.75C1018.72,352.694 1019.99,356.569 1020.56,361.819C1021.38,369.125 1021.13,372.5 1022.97,375.25L1018.21,375.25C1017.13,372.25 1016.88,369.056 1016.63,365.875C1015.68,355.569 1015.04,353.75 1006.74,353.75L995.389,353.75L995.389,375.25Z" style="fill:rgb(108,111,117);fill-rule:nonzero;"/>
        <path d="M0.361111,453.236L0.361111,408.111L4.48611,408.111L4.48611,427.917L29.4583,427.917L29.4583,408.111L33.5833,408.111L33.5833,453.236L29.4583,453.236L29.4583,431.667L4.48611,431.667L4.48611,453.236L0.361111,453.236Z" style="fill:rgb(108,111,117);fill-rule:nonzero;"/>
        <path d="M63.5694,400.806L63.5694,395.306L68.25,395.306L68.25,400.806L63.5694,400.806ZM52.5278,400.806L52.5278,395.306L57.2222,395.306L57.2222,400.806L52.5278,400.806ZM70.1528,437.292L60.2639,411.861L50.1944,437.292L70.1528,437.292ZM39.7917,453.236L57.9167,408.111L62.7361,408.111L81,453.236L76.5,453.236L71.6111,441.042L48.8611,441.042L44.0417,453.236L39.7917,453.236Z" style="fill:rgb(108,111,117);fill-rule:nonzero;"/>
        <path d="M87.0278,453.236L87.0278,408.111L93.6111,408.111L110.792,447.417L128.347,408.111L134.625,408.111L134.625,453.236L130.5,453.236L130.5,411.556L130.375,411.556L112.889,453.236L108.764,453.236L91.2778,411.736L91.1389,411.736L91.1389,453.236L87.0278,453.236Z" style="fill:rgb(108,111,117);fill-rule:nonzero;"/>
        <path d="M171.014,437.292L161.125,411.861L151.056,437.292L171.014,437.292ZM140.653,453.236L158.778,408.111L163.597,408.111L181.861,453.236L177.361,453.236L172.472,441.042L149.722,441.042L144.903,453.236L140.653,453.236Z" style="fill:rgb(108,111,117);fill-rule:nonzero;"/>
        <path d="M192.639,411.861L177.875,411.861L177.875,408.111L211.347,408.111L211.347,411.861L196.819,411.861L196.764,453.236L192.708,453.236L192.639,411.861Z" style="fill:rgb(108,111,117);fill-rule:nonzero;"/>
        <path d="M232.778,450.417C244.181,450.417 248.75,440.542 248.75,430.667C248.75,420.792 244.181,410.917 232.778,410.917C221.361,410.917 216.806,420.792 216.806,430.667C216.806,440.542 221.361,450.417 232.778,450.417ZM232.778,454.167C219.653,454.167 212.361,444.736 212.361,430.667C212.361,416.611 219.653,407.181 232.778,407.181C245.889,407.181 253.181,416.611 253.181,430.667C253.181,444.736 245.889,454.167 232.778,454.167Z" style="fill:rgb(108,111,117);fill-rule:nonzero;"/>
        <path d="M263.139,453.236L263.139,408.111L267.264,408.111L267.264,449.486L290.278,449.486L290.278,453.236L263.139,453.236Z" style="fill:rgb(108,111,117);fill-rule:nonzero;"/>
        <path d="M316.083,450.417C327.486,450.417 332.056,440.542 332.056,430.667C332.056,420.792 327.486,410.917 316.083,410.917C304.667,410.917 300.097,420.792 300.097,430.667C300.097,440.542 304.667,450.417 316.083,450.417ZM316.083,454.167C302.958,454.167 295.667,444.736 295.667,430.667C295.667,416.611 302.958,407.181 316.083,407.181C329.194,407.181 336.486,416.611 336.486,430.667C336.486,444.736 329.194,454.167 316.083,454.167Z" style="fill:rgb(108,111,117);fill-rule:nonzero;"/>
        <path d="M378.847,430.236L378.847,451.361C373.333,453.486 368.333,454.167 362.431,454.167C349.944,454.167 342.917,444.542 342.917,430.667C342.917,419.042 349.181,407.181 362.431,407.181C370.042,407.181 377.833,411.236 378.542,419.236L373.847,419.236C373.014,413.486 367.889,410.917 362.431,410.917C351.472,410.917 347.347,421.292 347.347,430.667C347.347,442.167 352.222,450.417 364.583,450.417C368.014,450.417 371.5,449.486 374.736,448.542L374.736,433.986L363.264,433.986L363.264,430.236L378.847,430.236Z" style="fill:rgb(108,111,117);fill-rule:nonzero;"/>
        <rect x="390.778" y="407.931" width="4.11113" height="45.3056" style="fill:rgb(108,111,117);fill-rule:nonzero;"/>
        <path d="M407.444,453.236L407.444,408.111L434.639,408.111L434.639,411.861L411.569,411.861L411.569,428.042L433.75,428.042L433.75,431.792L411.569,431.792L411.569,449.486L435.583,449.486L435.583,453.236L407.444,453.236Z" style="fill:rgb(108,111,117);fill-rule:nonzero;"/>
        <path d="M466.347,408.111L466.347,437.292C466.667,445.486 471.417,450.417 478.958,450.417C486.5,450.417 491.25,445.486 491.569,437.292L491.569,408.111L495.694,408.111L495.694,437.361C495.569,447.042 490.056,454.167 478.958,454.167C467.861,454.167 462.347,447.042 462.222,437.361L462.222,408.111L466.347,408.111Z" style="fill:rgb(108,111,117);fill-rule:nonzero;"/>
        <path d="M507.042,408.111L511.736,408.111L536.958,447.792L537.083,447.792L537.083,408.111L541.208,408.111L541.208,453.236L536.014,453.236L511.292,414.236L511.167,414.236L511.167,453.236L507.042,453.236L507.042,408.111Z" style="fill:rgb(108,111,117);fill-rule:nonzero;"/>
        <path d="M565.486,449.486C578.361,449.486 583.625,442.042 583.625,430.667C583.625,417.361 575.694,411.486 562.708,411.861L556.236,411.861L556.236,449.486L565.486,449.486ZM564.472,408.111C579.5,408.111 588.056,415.736 588.056,430.667C588.056,445.611 579.5,453.236 564.472,453.236L552.111,453.236L552.111,408.111L564.472,408.111Z" style="fill:rgb(108,111,117);fill-rule:nonzero;"/>
        <path d="M614.625,453.236L614.625,408.111L621.208,408.111L638.389,447.417L655.944,408.111L662.222,408.111L662.222,453.236L658.111,453.236L658.111,411.556L657.972,411.556L640.486,453.236L636.361,453.236L618.875,411.736L618.75,411.736L618.75,453.236L614.625,453.236Z" style="fill:rgb(108,111,117);fill-rule:nonzero;"/>
        <path d="M674.153,453.236L674.153,408.111L701.347,408.111L701.347,411.861L678.278,411.861L678.278,428.042L700.458,428.042L700.458,431.792L678.278,431.792L678.278,449.486L702.292,449.486L702.292,453.236L674.153,453.236Z" style="fill:rgb(108,111,117);fill-rule:nonzero;"/>
        <path d="M724.931,449.486C737.792,449.486 743.056,442.042 743.056,430.667C743.056,417.361 735.139,411.486 722.139,411.861L715.681,411.861L715.681,449.486L724.931,449.486ZM723.917,408.111C738.944,408.111 747.5,415.736 747.5,430.667C747.5,445.611 738.944,453.236 723.917,453.236L711.556,453.236L711.556,408.111L723.917,408.111Z" style="fill:rgb(108,111,117);fill-rule:nonzero;"/>
        <rect x="757.708" y="407.931" width="4.12502" height="45.3056" style="fill:rgb(108,111,117);fill-rule:nonzero;"/>
        <path d="M770.389,453.236L770.389,449.486L795.806,411.861L770.389,411.861L770.389,408.111L800.681,408.111L800.681,411.861L775.208,449.486L800.681,449.486L800.681,453.236L770.389,453.236Z" style="fill:rgb(108,111,117);fill-rule:nonzero;"/>
        <rect x="809.306" y="407.931" width="4.12502" height="45.3056" style="fill:rgb(108,111,117);fill-rule:nonzero;"/>
        <path d="M825.347,408.111L830.042,408.111L855.264,447.792L855.403,447.792L855.403,408.111L859.514,408.111L859.514,453.236L854.319,453.236L829.597,414.236L829.472,414.236L829.472,453.236L825.347,453.236L825.347,408.111Z" style="fill:rgb(108,111,117);fill-rule:nonzero;"/>
        <rect x="871.431" y="407.931" width="4.12496" height="45.3056" style="fill:rgb(108,111,117);fill-rule:nonzero;"/>
        <path d="M898.958,454.167C891.667,454.167 885.514,448.917 885.319,441.486L889.764,441.486C889.889,448.417 895.083,450.417 901.236,450.417C906.361,450.417 912.264,447.486 912.264,441.736C912.264,437.236 908.958,435.111 905.097,433.861C897.681,431.417 886.403,429.111 886.403,419.361C886.403,411.486 893.75,407.181 900.972,407.181C907,407.181 914.861,409.236 915.875,417.931L911.431,417.931C911.319,412.361 906.181,410.917 901.486,410.917C896.736,410.917 890.833,413.306 890.833,418.792C890.833,431.611 916.708,425.792 916.708,441.361C916.708,451.167 908.139,454.167 898.958,454.167Z" style="fill:rgb(108,111,117);fill-rule:nonzero;"/>
        <path d="M954.097,418.681C953.347,413.181 948.528,410.917 943.333,410.917C931.597,410.917 928.042,421.417 928.042,430.667C928.042,439.917 931.597,450.417 943.333,450.417C948.403,450.417 953.472,447.917 954.611,442.292L959.042,442.292C957.722,449.861 950.681,454.167 943.333,454.167C929.444,454.167 923.611,443.167 923.611,430.667C923.611,418.306 929.514,407.181 943.333,407.181C950.806,407.181 957.903,410.556 958.542,418.681L954.097,418.681Z" style="fill:rgb(108,111,117);fill-rule:nonzero;"/>
        <path d="M967.667,453.236L967.667,408.111L971.792,408.111L971.792,427.917L996.764,427.917L996.764,408.111L1000.89,408.111L1000.89,453.236L996.764,453.236L996.764,431.667L971.792,431.667L971.792,453.236L967.667,453.236Z" style="fill:rgb(108,111,117);fill-rule:nonzero;"/>
        <path d="M1013,453.236L1013,408.111L1040.18,408.111L1040.18,411.861L1017.11,411.861L1017.11,428.042L1039.31,428.042L1039.31,431.792L1017.11,431.792L1017.11,449.486L1041.14,449.486L1041.14,453.236L1013,453.236Z" style="fill:rgb(108,111,117);fill-rule:nonzero;"/>
        <path d="M1086.28,450.417C1097.69,450.417 1102.25,440.542 1102.25,430.667C1102.25,420.792 1097.69,410.917 1086.28,410.917C1074.88,410.917 1070.31,420.792 1070.31,430.667C1070.31,440.542 1074.88,450.417 1086.28,450.417ZM1086.28,454.167C1073.15,454.167 1065.88,444.736 1065.88,430.667C1065.88,416.611 1073.15,407.181 1086.28,407.181C1099.4,407.181 1106.69,416.611 1106.69,430.667C1106.69,444.736 1099.4,454.167 1086.28,454.167Z" style="fill:rgb(108,111,117);fill-rule:nonzero;"/>
        <path d="M1116.14,408.111L1120.83,408.111L1146.06,447.792L1146.18,447.792L1146.18,408.111L1150.31,408.111L1150.31,453.236L1145.1,453.236L1120.39,414.236L1120.25,414.236L1120.25,453.236L1116.14,453.236L1116.14,408.111Z" style="fill:rgb(108,111,117);fill-rule:nonzero;"/>
        <path d="M1162.17,453.236L1162.17,408.111L1166.22,408.111L1166.29,427.986L1186.76,408.111L1191.96,408.111L1170.85,428.486L1193.86,453.236L1188.22,453.236L1166.29,429.667L1166.22,453.236L1162.17,453.236Z" style="fill:rgb(108,111,117);fill-rule:nonzero;"/>
        <path d="M1215.68,450.417C1227.08,450.417 1231.65,440.542 1231.65,430.667C1231.65,420.792 1227.08,410.917 1215.68,410.917C1204.26,410.917 1199.71,420.792 1199.71,430.667C1199.71,440.542 1204.26,450.417 1215.68,450.417ZM1215.68,454.167C1202.56,454.167 1195.26,444.736 1195.26,430.667C1195.26,416.611 1202.56,407.181 1215.68,407.181C1228.81,407.181 1236.08,416.611 1236.08,430.667C1236.08,444.736 1228.81,454.167 1215.68,454.167Z" style="fill:rgb(108,111,117);fill-rule:nonzero;"/>
        <path d="M1246.04,453.236L1246.04,408.111L1250.17,408.111L1250.17,449.486L1273.18,449.486L1273.18,453.236L1246.04,453.236Z" style="fill:rgb(108,111,117);fill-rule:nonzero;"/>
        <path d="M1298.99,450.417C1310.39,450.417 1314.96,440.542 1314.96,430.667C1314.96,420.792 1310.39,410.917 1298.99,410.917C1287.58,410.917 1283.01,420.792 1283.01,430.667C1283.01,440.542 1287.58,450.417 1298.99,450.417ZM1298.99,454.167C1285.86,454.167 1278.57,444.736 1278.57,430.667C1278.57,416.611 1285.86,407.181 1298.99,407.181C1312.1,407.181 1319.39,416.611 1319.39,430.667C1319.39,444.736 1312.1,454.167 1298.99,454.167Z" style="fill:rgb(108,111,117);fill-rule:nonzero;"/>
        <path d="M1361.75,430.236L1361.75,451.361C1356.24,453.486 1351.24,454.167 1345.33,454.167C1332.85,454.167 1325.82,444.542 1325.82,430.667C1325.82,419.042 1332.08,407.181 1345.33,407.181C1352.94,407.181 1360.74,411.236 1361.43,419.236L1356.75,419.236C1355.93,413.486 1350.79,410.917 1345.33,410.917C1334.38,410.917 1330.25,421.292 1330.25,430.667C1330.25,442.167 1335.14,450.417 1347.5,450.417C1350.92,450.417 1354.4,449.486 1357.64,448.542L1357.64,433.986L1346.15,433.986L1346.15,430.236L1361.75,430.236Z" style="fill:rgb(108,111,117);fill-rule:nonzero;"/>
        <rect x="1373.68" y="407.931" width="4.1111" height="45.3056" style="fill:rgb(108,111,117);fill-rule:nonzero;"/>
        <path d="M1390.35,453.236L1390.35,408.111L1417.54,408.111L1417.54,411.861L1394.47,411.861L1394.47,428.042L1416.65,428.042L1416.65,431.792L1394.47,431.792L1394.47,449.486L1418.49,449.486L1418.49,453.236L1390.35,453.236Z" style="fill:rgb(108,111,117);fill-rule:nonzero;"/>
    </g>
</svg>