<svg xmlns="http://www.w3.org/2000/svg" xmlns:xlink="http://www.w3.org/1999/xlink" version="1.1" id="Ebene_1" x="0px" y="0px" width="226.771px" height="85.039px" viewBox="0 0 226.771 85.039" enable-background="new 0 0 226.771 85.039" xml:space="preserve">
<g>
	<path fill="none" stroke="#E32121" stroke-width="1.7227" d="M159.075,70.861c24.863,0,45.092-12.715,45.092-28.341   c0-15.627-20.229-28.343-45.092-28.343c-24.865,0-45.094,12.714-45.094,28.343C113.981,58.146,134.21,70.861,159.075,70.861   L159.075,70.861z M146.616,62.975c17.994,0,32.633-9.176,32.633-20.455s-14.639-20.455-32.633-20.455s-32.635,9.176-32.635,20.455   S128.62,62.975,146.616,62.975L146.616,62.975z"/>
	<path fill="#2C388C" d="M44.918,51.154c0,1.301,0.551,2.281,1.979,2.281c1.428,0,1.979-0.98,1.979-2.281v-3.188h-1.038v2.982   c0,0.658-0.057,1.584-0.939,1.584c-0.885,0-0.94-0.926-0.94-1.584v-2.982h-1.039L44.918,51.154L44.918,51.154z M49.597,53.295   h1.038v-3.617h0.015l2.807,3.723h0.749v-5.434h-1.038v3.582h-0.014l-2.808-3.723h-0.749V53.295L49.597,53.295z M54.948,53.295   h1.477c1.521,0,2.58-1.158,2.58-2.656c0-1.521-1.031-2.672-2.573-2.672h-1.482L54.948,53.295L54.948,53.295z M55.987,48.871h0.17   c1.181,0,1.774,0.6,1.774,1.76c0,1.053-0.495,1.76-1.774,1.76h-0.17V48.871L55.987,48.871z M62.707,50.066v-2.1h-1.038v5.328h1.038   v-2.381h1.923v2.381h1.039v-5.328H64.63v2.1H62.707L62.707,50.066z M69.499,52.172l0.41,1.123h1.108l-2.021-5.469h-0.806   l-2.078,5.469h1.096l0.438-1.123H69.499L69.499,52.172z M69.21,51.324h-1.265l0.586-1.938h0.014L69.21,51.324L69.21,51.324z    M67.824,46.051c-0.312,0-0.565,0.254-0.565,0.566c0,0.311,0.254,0.564,0.565,0.564c0.311,0,0.564-0.254,0.564-0.564   C68.389,46.305,68.136,46.051,67.824,46.051L67.824,46.051z M69.317,46.051c-0.312,0-0.565,0.254-0.565,0.566   c0,0.311,0.254,0.564,0.565,0.564c0.311,0,0.564-0.254,0.564-0.564C69.881,46.305,69.627,46.051,69.317,46.051L69.317,46.051z    M76.151,53.295h1.046l-0.798-5.469H75.65l-1.259,3.512l-1.313-3.512h-0.735l-0.896,5.469h1.046l0.474-3.307h0.014l1.166,3.377   h0.36l1.208-3.379h0.014L76.151,53.295L76.151,53.295z M81.148,52.172l0.409,1.123h1.109l-2.021-5.469H79.84l-2.078,5.469h1.096   l0.438-1.123H81.148L81.148,52.172z M80.859,51.324h-1.266l0.586-1.938h0.015L80.859,51.324L80.859,51.324z M84.28,48.871h1.073   v-0.904h-3.187v0.904h1.074v4.424h1.038L84.28,48.871L84.28,48.871z M87.962,53.436c1.555,0,2.636-1.285,2.636-2.811   c0-1.49-1.081-2.799-2.636-2.799c-1.556,0-2.636,1.309-2.636,2.799C85.326,52.15,86.407,53.436,87.962,53.436L87.962,53.436z    M87.962,48.85c0.912,0,1.562,0.869,1.562,1.732c0,0.805-0.68,1.83-1.562,1.83c-0.884,0-1.562-1.025-1.562-1.83   C86.401,49.719,87.05,48.85,87.962,48.85L87.962,48.85z M92.274,47.967h-1.038v5.328h2.508v-0.904h-1.47V47.967L92.274,47.967z    M96.302,53.436c1.556,0,2.636-1.285,2.636-2.811c0-1.49-1.08-2.799-2.636-2.799s-2.636,1.309-2.636,2.799   C93.666,52.15,94.746,53.436,96.302,53.436L96.302,53.436z M96.302,48.85c0.912,0,1.562,0.869,1.562,1.732   c0,0.805-0.68,1.83-1.562,1.83s-1.562-1.025-1.562-1.83C94.74,49.719,95.39,48.85,96.302,48.85L96.302,48.85z M101.986,50.461   v0.848h1.131c-0.021,0.646-0.566,1.209-1.216,1.209c-1.005,0-1.507-0.982-1.507-1.865s0.495-1.908,1.499-1.908   c0.552,0,1.004,0.367,1.217,0.85l0.918-0.494c-0.409-0.812-1.201-1.271-2.106-1.271c-1.59,0-2.601,1.307-2.601,2.826   c0,1.471,0.981,2.783,2.537,2.783c1.653,0,2.424-1.334,2.424-2.84v-0.135h-2.296V50.461z M105.963,47.967h-1.038v5.328h1.038   V47.967L105.963,47.967z M109.322,48.871v-0.904h-2.756v5.328h2.756v-0.904h-1.719v-1.441h1.654v-0.902h-1.654v-1.174h1.719V48.871   z"/>
	<path fill="#2C388C" d="M23.644,43.104h0.517c1.088,0,1.703-0.55,1.703-1.681c0-1.208-0.729-1.653-1.846-1.653h-1.413v5.328h1.038   L23.644,43.104L23.644,43.104z M23.644,40.63h0.185c0.58,0,0.976,0.099,0.976,0.785c0,0.692-0.333,0.827-0.947,0.827h-0.213V40.63   L23.644,40.63z M28.839,43.973l0.41,1.123h1.109l-2.021-5.468h-0.806l-2.078,5.468h1.095l0.438-1.123H28.839L28.839,43.973z    M28.549,43.125h-1.265l0.586-1.937h0.014L28.549,43.125L28.549,43.125z M27.164,37.854c-0.312,0-0.565,0.254-0.565,0.565   s0.254,0.565,0.565,0.565c0.311,0,0.564-0.254,0.564-0.565S27.474,37.854,27.164,37.854L27.164,37.854z M28.656,37.854   c-0.312,0-0.565,0.254-0.565,0.565s0.254,0.565,0.565,0.565c0.311,0,0.564-0.254,0.564-0.565S28.966,37.854,28.656,37.854   L28.656,37.854z M30.804,45.096h1.478c1.521,0,2.58-1.158,2.58-2.656c0-1.52-1.031-2.67-2.572-2.67h-1.484L30.804,45.096   L30.804,45.096z M31.842,40.672h0.17c1.182,0,1.775,0.601,1.775,1.76c0,1.054-0.495,1.761-1.775,1.761h-0.17V40.672L31.842,40.672z    M36.535,39.769h-1.038v5.327h1.038V39.769L36.535,39.769z M40.36,43.973l0.409,1.123h1.109l-2.021-5.468h-0.807l-2.078,5.468   h1.096l0.438-1.123H40.36L40.36,43.973z M40.071,43.125h-1.266l0.586-1.937h0.015L40.071,43.125L40.071,43.125z M43.491,40.672   h1.075v-0.904h-3.188v0.904h1.074v4.423h1.038V40.672L43.491,40.672z M47.174,42.85c0.713-0.121,1.088-0.8,1.088-1.478   c0-1.138-0.728-1.604-1.78-1.604h-1.406v5.327h1.038v-2.148h0.014l1.294,2.148h1.257L47.174,42.85L47.174,42.85z M46.114,40.615   h0.142c0.552,0,0.969,0.127,0.969,0.786c0,0.649-0.402,0.819-0.977,0.819h-0.134V40.615L46.114,40.615z M50.184,39.769h-1.038   v5.327h1.038V39.769L50.184,39.769z M54.066,40.22c-0.325-0.36-0.982-0.593-1.456-0.593c-0.898,0-1.556,0.713-1.556,1.597   c0,0.827,0.501,1.172,1.188,1.457c0.417,0.162,0.927,0.318,0.927,0.87c0,0.41-0.262,0.77-0.686,0.77   c-0.446,0-0.82-0.369-0.962-0.775l-0.671,0.654c0.368,0.615,0.904,1.039,1.64,1.039c1.089,0,1.752-0.756,1.752-1.822   c0-1.789-2.113-1.414-2.113-2.312c0-0.346,0.318-0.601,0.651-0.601c0.347,0,0.601,0.17,0.799,0.438L54.066,40.22L54.066,40.22z    M58.475,39.938c-0.359-0.198-0.771-0.311-1.188-0.311c-1.562,0-2.628,1.335-2.628,2.848c0,1.47,1.108,2.763,2.606,2.763   c0.432,0,0.82-0.135,1.208-0.316v-1.236c-0.29,0.332-0.734,0.566-1.181,0.566c-0.968,0-1.562-0.898-1.562-1.798   c0-0.918,0.572-1.837,1.568-1.837c0.445,0,0.883,0.212,1.173,0.565v-1.243H58.475z M60.326,41.868v-2.099h-1.038v5.327h1.038v-2.38   h1.923v2.38h1.038v-5.327H62.25v2.099H60.326L60.326,41.868z M66.935,40.672v-0.904H64.18v5.327h2.755v-0.902h-1.717v-1.442h1.654   v-0.904h-1.654v-1.174L66.935,40.672L66.935,40.672z M72.307,45.238c1.556,0,2.637-1.287,2.637-2.813   c0-1.491-1.081-2.798-2.637-2.798s-2.636,1.307-2.636,2.798C69.671,43.951,70.751,45.238,72.307,45.238L72.307,45.238z    M72.307,40.651c0.912,0,1.562,0.871,1.562,1.732c0,0.806-0.679,1.83-1.562,1.83c-0.883,0-1.562-1.023-1.562-1.83   C70.744,41.52,71.395,40.651,72.307,40.651L72.307,40.651z M75.579,45.096h1.038v-3.617h0.015l2.806,3.724h0.749v-5.435H79.15   v3.583h-0.015l-2.807-3.725h-0.749V45.096L75.579,45.096z M82.123,42.015h-0.013v-2.247h-1.038v5.327h1.038v-2.394h0.014   l1.704,2.394h1.336l-2.135-2.869l2.021-2.458h-1.28L82.123,42.015L82.123,42.015z M87.538,45.238c1.555,0,2.636-1.287,2.636-2.813   c0-1.491-1.081-2.798-2.636-2.798s-2.636,1.307-2.636,2.798C84.903,43.951,85.984,45.238,87.538,45.238L87.538,45.238z    M87.538,40.651c0.912,0,1.562,0.871,1.562,1.732c0,0.806-0.679,1.83-1.562,1.83s-1.562-1.023-1.562-1.83   C85.975,41.52,86.626,40.651,87.538,40.651L87.538,40.651z M91.849,39.769h-1.038v5.327h2.509v-0.902h-1.471V39.769L91.849,39.769z    M96.16,45.238c1.556,0,2.636-1.287,2.636-2.813c0-1.491-1.08-2.798-2.636-2.798s-2.636,1.307-2.636,2.798   C93.526,43.951,94.605,45.238,96.16,45.238L96.16,45.238z M96.16,40.651c0.912,0,1.562,0.871,1.562,1.732   c0,0.806-0.679,1.83-1.562,1.83s-1.562-1.023-1.562-1.83C94.598,41.52,95.249,40.651,96.16,40.651L96.16,40.651z M101.843,42.263   v0.848h1.131c-0.021,0.645-0.564,1.209-1.216,1.209c-1.004,0-1.506-0.982-1.506-1.867c0-0.883,0.495-1.908,1.499-1.908   c0.551,0,1.004,0.368,1.216,0.85l0.918-0.496c-0.41-0.812-1.201-1.271-2.105-1.271c-1.592,0-2.602,1.307-2.602,2.827   c0,1.47,0.981,2.785,2.537,2.785c1.654,0,2.424-1.336,2.424-2.841v-0.135L101.843,42.263L101.843,42.263z M105.823,39.769h-1.038   v5.327h1.038V39.769L105.823,39.769z M109.322,40.672v-0.904h-2.756v5.327h2.756v-0.902h-1.719v-1.442h1.654v-0.904h-1.654v-1.174   L109.322,40.672L109.322,40.672z"/>
	<path fill="#2C388C" d="M50.822,34.117v0.847h1.131c-0.021,0.644-0.566,1.209-1.216,1.209c-1.004,0-1.507-0.983-1.507-1.866   c0-0.884,0.495-1.909,1.499-1.909c0.552,0,1.005,0.368,1.217,0.849l0.918-0.495c-0.41-0.812-1.201-1.271-2.106-1.271   c-1.591,0-2.601,1.307-2.601,2.827c0,1.47,0.98,2.784,2.537,2.784c1.653,0,2.423-1.335,2.423-2.84v-0.135H50.822L50.822,34.117z    M56.517,32.526v-0.904h-2.756v5.329h2.756v-0.904H54.8v-1.443h1.654V33.7H54.8v-1.174H56.517L56.517,32.526z M60.334,32.074   c-0.325-0.36-0.982-0.593-1.456-0.593c-0.896,0-1.554,0.713-1.554,1.597c0,0.827,0.501,1.173,1.187,1.456   c0.417,0.163,0.927,0.318,0.927,0.87c0,0.41-0.262,0.771-0.686,0.771c-0.446,0-0.82-0.367-0.961-0.777l-0.671,0.657   c0.367,0.615,0.904,1.038,1.639,1.038c1.089,0,1.752-0.755,1.752-1.823c0-1.789-2.112-1.414-2.112-2.312   c0-0.347,0.317-0.601,0.65-0.601c0.347,0,0.602,0.169,0.799,0.438L60.334,32.074L60.334,32.074z M63.938,32.526v-0.904h-2.755   v5.329h2.755v-0.904h-1.717v-1.443h1.654V33.7h-1.654v-1.174H63.938L63.938,32.526z M65.797,31.623h-1.038v5.329h2.508v-0.904   h-1.47V31.623L65.797,31.623z M68.765,31.623h-1.038v5.329h2.509v-0.904h-1.471V31.623L68.765,31.623z M73.833,32.074   c-0.325-0.36-0.981-0.593-1.456-0.593c-0.898,0-1.555,0.713-1.555,1.597c0,0.827,0.501,1.173,1.187,1.456   c0.417,0.163,0.926,0.318,0.926,0.87c0,0.41-0.262,0.771-0.686,0.771c-0.445,0-0.82-0.367-0.961-0.777l-0.671,0.657   c0.367,0.615,0.903,1.038,1.639,1.038c1.088,0,1.752-0.755,1.752-1.823c0-1.789-2.113-1.414-2.113-2.312   c0-0.347,0.318-0.601,0.65-0.601c0.347,0,0.601,0.169,0.799,0.438L73.833,32.074L73.833,32.074z M78.243,31.792   c-0.36-0.198-0.771-0.311-1.188-0.311c-1.562,0-2.628,1.335-2.628,2.848c0,1.471,1.109,2.763,2.607,2.763   c0.431,0,0.819-0.134,1.208-0.318v-1.236c-0.29,0.333-0.735,0.566-1.181,0.566c-0.968,0-1.562-0.898-1.562-1.796   c0-0.919,0.572-1.838,1.569-1.838c0.444,0,0.884,0.212,1.173,0.565L78.243,31.792L78.243,31.792z M80.095,33.721v-2.099h-1.038   v5.329h1.038v-2.382h1.923v2.382h1.038v-5.329h-1.038v2.099H80.095L80.095,33.721z M86.887,35.827l0.41,1.124h1.109l-2.021-5.47   H85.58l-2.078,5.47h1.095l0.438-1.124H86.887L86.887,35.827z M86.598,34.98h-1.265l0.587-1.937h0.014L86.598,34.98L86.598,34.98z    M91.495,32.526v-0.904h-2.643v5.329h1.038v-2.347h1.505V33.7h-1.505v-1.174H91.495L91.495,32.526z M94.125,32.526h1.074v-0.904   h-3.188v0.904h1.074v4.425h1.038L94.125,32.526L94.125,32.526z M100.521,32.526v-0.904h-2.642v5.329h1.038v-2.347h1.505V33.7   h-1.505v-1.174H100.521L100.521,32.526z M101.25,34.811c0,1.3,0.551,2.282,1.979,2.282c1.429,0,1.979-0.981,1.979-2.282v-3.188   h-1.038v2.983c0,0.657-0.057,1.583-0.94,1.583c-0.883,0-0.939-0.926-0.939-1.583v-2.983h-1.038v3.188H101.25z M102.487,29.708   c-0.312,0-0.565,0.254-0.565,0.565s0.254,0.565,0.565,0.565c0.311,0,0.564-0.254,0.564-0.565S102.797,29.708,102.487,29.708   L102.487,29.708z M103.977,29.708c-0.311,0-0.564,0.254-0.564,0.565s0.254,0.565,0.564,0.565c0.312,0,0.566-0.254,0.566-0.565   S104.288,29.708,103.977,29.708L103.977,29.708z M108.169,34.703c0.713-0.12,1.087-0.799,1.087-1.478   c0-1.137-0.727-1.604-1.781-1.604h-1.405v5.329h1.038v-2.149h0.014l1.294,2.149h1.257L108.169,34.703L108.169,34.703z    M107.109,32.47h0.142c0.551,0,0.969,0.127,0.969,0.784c0,0.65-0.402,0.82-0.976,0.82h-0.134L107.109,32.47L107.109,32.47z"/>
	<path fill="#2C388C" d="M128.171,41.755v3.456h4.605c-0.086,2.619-2.303,4.92-4.951,4.92c-4.086,0-6.131-4-6.131-7.599   c0-3.596,2.016-7.771,6.102-7.771c2.246,0,4.088,1.497,4.951,3.454l3.742-2.015c-1.67-3.31-4.895-5.18-8.578-5.18   c-6.477,0-10.59,5.324-10.59,11.511c0,5.986,4,11.341,10.332,11.341c6.734,0,9.871-5.439,9.871-11.571v-0.547H128.171   L128.171,41.755z"/>
	<polygon fill="#2C388C" points="186.083,40.144 186.083,31.595 181.852,31.595 181.852,53.295 186.083,53.295 186.083,43.596    193.911,43.596 193.911,53.295 198.143,53.295 198.143,31.595 193.911,31.595 193.911,40.144  "/>
	<path fill="#2C388C" d="M165.157,53.871c6.332,0,10.734-5.238,10.734-11.455c0-6.072-4.402-11.396-10.734-11.396   s-10.736,5.324-10.736,11.396C154.421,48.633,158.825,53.871,165.157,53.871L165.157,53.871z M165.157,35.193   c3.713,0,6.359,3.54,6.359,7.051c0,3.281-2.764,7.453-6.359,7.453c-3.598,0-6.361-4.172-6.361-7.453   C158.794,38.733,161.444,35.193,165.157,35.193L165.157,35.193z"/>
	<path fill="#2C388C" d="M144.149,45.18h2.1c4.434,0,6.938-2.244,6.938-6.849c0-4.921-2.965-6.734-7.512-6.734h-5.758v21.701h4.232   V45.18L144.149,45.18z M144.149,35.107h0.746c2.359,0,3.973,0.403,3.973,3.194c0,2.821-1.354,3.367-3.855,3.367h-0.863V35.107   L144.149,35.107z"/>
</g>
</svg>