<svg xmlns="http://www.w3.org/2000/svg" xmlns:xlink="http://www.w3.org/1999/xlink" width="100%" height="100%" viewBox="0 0 795 416" version="1.1" xml:space="preserve" style="fill-rule:evenodd;clip-rule:evenodd;stroke-linejoin:round;stroke-miterlimit:1.41421;">
    <g>
        <path d="M325.833,309.125L319.931,309.125L310.139,295L307.125,297.458L307.125,309.125L302.042,309.125L302.042,277.944L307.125,277.944L307.125,292.833C308.514,291.125 309.903,289.472 311.292,287.903L319.708,277.944L325.514,277.944C320.069,284.333 316.167,288.889 313.806,291.611L325.833,309.125Z" style="fill:rgb(0,99,159);fill-rule:nonzero;"/>
        <path d="M334.139,297.278C334.139,302.722 336.139,305.444 340.167,305.444C344.153,305.444 346.139,302.722 346.139,297.278C346.139,291.889 344.139,289.194 340.111,289.194C338.028,289.194 336.486,289.889 335.542,291.292C334.597,292.681 334.139,294.681 334.139,297.278ZM351.306,297.278C351.306,301.125 350.306,304.139 348.333,306.306C346.361,308.458 343.597,309.542 340.083,309.542C337.875,309.542 335.917,309.042 334.236,308.056C332.542,307.056 331.25,305.625 330.333,303.764C329.417,301.903 328.972,299.736 328.972,297.278C328.972,293.458 329.958,290.472 331.903,288.319C333.875,286.181 336.639,285.097 340.208,285.097C343.625,285.097 346.333,286.194 348.319,288.403C350.306,290.597 351.306,293.556 351.306,297.278Z" style="fill:rgb(0,99,159);fill-rule:nonzero;"/>
        <path d="M377.889,309.125L372.875,309.125L372.875,294.569C372.875,292.764 372.528,291.417 371.833,290.528C371.167,289.639 370.097,289.194 368.639,289.194C366.708,289.194 365.278,289.819 364.389,291.083C363.486,292.347 363.028,294.431 363.028,297.361L363.028,309.125L358.014,309.125L358.014,285.528L361.944,285.528L362.639,288.625L362.903,288.625C363.556,287.5 364.5,286.625 365.75,286.014C366.986,285.403 368.361,285.097 369.861,285.097C373.486,285.097 375.889,286.333 377.056,288.819L377.403,288.819C378.097,287.653 379.083,286.736 380.347,286.083C381.611,285.431 383.069,285.097 384.708,285.097C387.514,285.097 389.556,285.806 390.847,287.236C392.125,288.653 392.778,290.819 392.778,293.736L392.778,309.125L387.778,309.125L387.778,294.569C387.778,292.764 387.431,291.417 386.722,290.528C386.042,289.639 384.972,289.194 383.528,289.194C381.583,289.194 380.153,289.806 379.25,291.014C378.347,292.236 377.889,294.111 377.889,296.611L377.889,309.125Z" style="fill:rgb(0,99,159);fill-rule:nonzero;"/>
        <path d="M411.486,289.194C409.486,289.194 408.042,289.778 407.125,290.944C406.208,292.111 405.75,293.972 405.75,296.528L405.75,297.278C405.75,300.153 406.208,302.236 407.111,303.514C408.028,304.806 409.514,305.444 411.583,305.444C413.306,305.444 414.639,304.736 415.583,303.319C416.514,301.903 417,299.875 417,297.236C417,294.597 416.528,292.597 415.597,291.236C414.653,289.875 413.292,289.194 411.486,289.194ZM412.708,309.542C409.722,309.542 407.389,308.472 405.75,306.319L405.444,306.319C405.653,308.306 405.75,309.514 405.75,309.944L405.75,319.611L400.736,319.611L400.736,285.528L404.792,285.528C404.903,285.972 405.139,287.014 405.5,288.681L405.75,288.681C407.306,286.292 409.653,285.097 412.778,285.097C415.736,285.097 418.028,286.167 419.667,288.306C421.306,290.431 422.125,293.431 422.125,297.278C422.125,301.125 421.292,304.139 419.625,306.306C417.958,308.458 415.639,309.542 412.708,309.542Z" style="fill:rgb(0,99,159);fill-rule:nonzero;"/>
        <path d="M438.292,288.903C436.708,288.903 435.431,289.403 434.472,290.417C433.514,291.417 432.944,292.903 432.75,294.833L443.458,294.833C443.431,292.875 442.958,291.403 442.056,290.403C441.139,289.403 439.903,288.903 438.292,288.903ZM439.222,309.542C435.542,309.542 432.681,308.472 430.611,306.333C428.542,304.194 427.5,301.25 427.5,297.5C427.5,293.639 428.458,290.611 430.375,288.403C432.292,286.194 434.944,285.097 438.292,285.097C441.417,285.097 443.875,286.042 445.681,287.944C447.472,289.819 448.389,292.431 448.389,295.75L448.389,298.458L432.667,298.458C432.736,300.736 433.347,302.5 434.528,303.736C435.694,304.958 437.333,305.569 439.444,305.569C440.847,305.569 442.153,305.444 443.347,305.181C444.542,304.917 445.833,304.486 447.222,303.875L447.222,307.944C445.986,308.528 444.75,308.944 443.5,309.181C442.25,309.431 440.819,309.542 439.222,309.542Z" style="fill:rgb(0,99,159);fill-rule:nonzero;"/>
        <path d="M463.833,305.5C465.042,305.5 466.264,305.306 467.486,304.917L467.486,308.694C466.944,308.931 466.222,309.139 465.361,309.306C464.486,309.458 463.569,309.542 462.625,309.542C457.875,309.542 455.514,307.042 455.514,302.042L455.514,289.319L452.292,289.319L452.292,287.111L455.75,285.278L457.458,280.278L460.542,280.278L460.542,285.528L467.264,285.528L467.264,289.319L460.542,289.319L460.542,301.944C460.542,303.153 460.847,304.056 461.444,304.625C462.056,305.208 462.847,305.5 463.833,305.5Z" style="fill:rgb(0,99,159);fill-rule:nonzero;"/>
        <path d="M482.542,288.903C480.958,288.903 479.681,289.403 478.722,290.417C477.764,291.417 477.194,292.903 477,294.833L487.708,294.833C487.681,292.875 487.222,291.403 486.306,290.403C485.389,289.403 484.153,288.903 482.542,288.903ZM483.472,309.542C479.792,309.542 476.931,308.472 474.861,306.333C472.806,304.194 471.75,301.25 471.75,297.5C471.75,293.639 472.722,290.611 474.639,288.403C476.556,286.194 479.194,285.097 482.542,285.097C485.667,285.097 488.125,286.042 489.931,287.944C491.736,289.819 492.639,292.431 492.639,295.75L492.639,298.458L476.917,298.458C477,300.736 477.611,302.5 478.778,303.736C479.944,304.958 481.583,305.569 483.694,305.569C485.097,305.569 486.403,305.444 487.597,305.181C488.792,304.917 490.083,304.486 491.472,303.875L491.472,307.944C490.236,308.528 489,308.944 487.75,309.181C486.5,309.431 485.069,309.542 483.472,309.542Z" style="fill:rgb(0,99,159);fill-rule:nonzero;"/>
        <path d="M520.042,309.125L515.014,309.125L515.014,294.611C515.014,292.792 514.653,291.444 513.917,290.542C513.194,289.639 512.028,289.194 510.431,289.194C508.306,289.194 506.764,289.819 505.792,291.069C504.806,292.333 504.319,294.431 504.319,297.361L504.319,309.125L499.306,309.125L499.306,285.528L503.222,285.528L503.917,288.625L504.181,288.625C504.889,287.5 505.903,286.625 507.208,286.014C508.528,285.403 509.972,285.097 511.569,285.097C517.222,285.097 520.042,287.972 520.042,293.736L520.042,309.125Z" style="fill:rgb(0,99,159);fill-rule:nonzero;"/>
        <path d="M543.75,309.125L525.861,309.125L525.861,306.028L537.778,289.361L526.583,289.361L526.583,285.528L543.403,285.528L543.403,289.028L531.736,305.278L543.75,305.278L543.75,309.125Z" style="fill:rgb(0,99,159);fill-rule:nonzero;"/>
        <path d="M570.569,309.125L565.542,309.125L565.542,294.611C565.542,292.792 565.181,291.444 564.444,290.542C563.708,289.639 562.556,289.194 560.958,289.194C558.847,289.194 557.292,289.819 556.306,291.069C555.319,292.333 554.833,294.431 554.833,297.361L554.833,309.125L549.819,309.125L549.819,285.528L553.75,285.528L554.458,288.625L554.708,288.625C555.417,287.5 556.417,286.625 557.736,286.014C559.042,285.403 560.5,285.097 562.083,285.097C567.75,285.097 570.569,287.972 570.569,293.736L570.569,309.125Z" style="fill:rgb(0,99,159);fill-rule:nonzero;"/>
        <path d="M587.889,288.903C586.306,288.903 585.028,289.403 584.069,290.417C583.111,291.417 582.542,292.903 582.347,294.833L593.056,294.833C593.028,292.875 592.569,291.403 591.653,290.403C590.736,289.403 589.486,288.903 587.889,288.903ZM588.806,309.542C585.153,309.542 582.278,308.472 580.208,306.333C578.139,304.194 577.097,301.25 577.097,297.5C577.097,293.639 578.056,290.611 579.986,288.403C581.903,286.194 584.542,285.097 587.889,285.097C591.014,285.097 593.458,286.042 595.278,287.944C597.083,289.819 597.986,292.431 597.986,295.75L597.986,298.458L582.264,298.458C582.333,300.736 582.958,302.5 584.111,303.736C585.292,304.958 586.917,305.569 589.042,305.569C590.444,305.569 591.736,305.444 592.944,305.181C594.139,304.917 595.431,304.486 596.806,303.875L596.806,307.944C595.583,308.528 594.347,308.944 593.097,309.181C591.847,309.431 590.417,309.542 588.806,309.542Z" style="fill:rgb(0,99,159);fill-rule:nonzero;"/>
        <path d="M613.431,305.5C614.653,305.5 615.875,305.306 617.083,304.917L617.083,308.694C616.528,308.931 615.819,309.139 614.944,309.306C614.083,309.458 613.167,309.542 612.236,309.542C607.486,309.542 605.111,307.042 605.111,302.042L605.111,289.319L601.889,289.319L601.889,287.111L605.333,285.278L607.042,280.278L610.139,280.278L610.139,285.528L616.847,285.528L616.847,289.319L610.139,289.319L610.139,301.944C610.139,303.153 610.444,304.056 611.042,304.625C611.653,305.208 612.444,305.5 613.431,305.5Z" style="fill:rgb(0,99,159);fill-rule:nonzero;"/>
        <path d="M638.528,309.125L620.625,309.125L620.625,306.028L632.556,289.361L621.347,289.361L621.347,285.528L638.194,285.528L638.194,289.028L626.514,305.278L638.528,305.278L638.528,309.125Z" style="fill:rgb(0,99,159);fill-rule:nonzero;"/>
        <path d="M325.833,357.653L319.931,357.653L310.139,343.528L307.125,345.986L307.125,357.653L302.042,357.653L302.042,326.472L307.125,326.472L307.125,341.361C308.514,339.653 309.903,338 311.292,336.431L319.708,326.472L325.514,326.472C320.069,332.875 316.167,337.431 313.806,340.139L325.833,357.653Z" style="fill:rgb(0,99,159);fill-rule:nonzero;"/>
        <path d="M334.139,345.806C334.139,351.25 336.139,353.986 340.167,353.986C344.153,353.986 346.139,351.25 346.139,345.806C346.139,340.417 344.139,337.736 340.111,337.736C338.028,337.736 336.486,338.431 335.542,339.819C334.597,341.222 334.139,343.208 334.139,345.806ZM351.306,345.806C351.306,349.667 350.306,352.681 348.333,354.833C346.361,357 343.597,358.069 340.083,358.069C337.875,358.069 335.917,357.583 334.236,356.583C332.542,355.583 331.25,354.153 330.333,352.292C329.417,350.431 328.972,348.278 328.972,345.806C328.972,341.986 329.958,339 331.903,336.847C333.875,334.708 336.639,333.625 340.208,333.625C343.625,333.625 346.333,334.736 348.319,336.931C350.306,339.125 351.306,342.083 351.306,345.806Z" style="fill:rgb(0,99,159);fill-rule:nonzero;"/>
        <path d="M377.889,357.653L372.875,357.653L372.875,343.111C372.875,341.292 372.528,339.958 371.833,339.069C371.167,338.181 370.097,337.736 368.639,337.736C366.708,337.736 365.278,338.361 364.389,339.611C363.486,340.875 363.028,342.972 363.028,345.903L363.028,357.653L358.014,357.653L358.014,334.056L361.944,334.056L362.639,337.153L362.903,337.153C363.556,336.028 364.5,335.167 365.75,334.556C366.986,333.944 368.361,333.625 369.861,333.625C373.486,333.625 375.889,334.875 377.056,337.347L377.403,337.347C378.097,336.181 379.083,335.264 380.347,334.611C381.611,333.958 383.069,333.625 384.708,333.625C387.514,333.625 389.556,334.347 390.847,335.764C392.125,337.181 392.778,339.361 392.778,342.264L392.778,357.653L387.778,357.653L387.778,343.111C387.778,341.292 387.431,339.958 386.722,339.069C386.042,338.181 384.972,337.736 383.528,337.736C381.583,337.736 380.153,338.333 379.25,339.556C378.347,340.764 377.889,342.639 377.889,345.153L377.889,357.653Z" style="fill:rgb(0,99,159);fill-rule:nonzero;"/>
        <path d="M411.486,337.736C409.486,337.736 408.042,338.319 407.125,339.486C406.208,340.653 405.75,342.514 405.75,345.069L405.75,345.806C405.75,348.681 406.208,350.764 407.111,352.056C408.028,353.333 409.514,353.986 411.583,353.986C413.306,353.986 414.639,353.278 415.583,351.847C416.514,350.431 417,348.403 417,345.764C417,343.125 416.528,341.125 415.597,339.764C414.653,338.403 413.292,337.736 411.486,337.736ZM412.708,358.069C409.722,358.069 407.389,357 405.75,354.847L405.444,354.847C405.653,356.847 405.75,358.056 405.75,358.472L405.75,368.139L400.736,368.139L400.736,334.056L404.792,334.056C404.903,334.5 405.139,335.556 405.5,337.222L405.75,337.222C407.306,334.833 409.653,333.625 412.778,333.625C415.736,333.625 418.028,334.694 419.667,336.833C421.306,338.958 422.125,341.958 422.125,345.806C422.125,349.667 421.292,352.681 419.625,354.833C417.958,357 415.639,358.069 412.708,358.069Z" style="fill:rgb(0,99,159);fill-rule:nonzero;"/>
        <rect x="428.917" y="324.458" width="4.99999" height="33.1944" style="fill:rgb(0,99,159);fill-rule:nonzero;"/>
        <path d="M451.431,337.431C449.847,337.431 448.569,337.931 447.611,338.944C446.653,339.958 446.083,341.431 445.889,343.361L456.597,343.361C456.569,341.417 456.097,339.931 455.194,338.931C454.278,337.931 453.028,337.431 451.431,337.431ZM452.347,358.069C448.681,358.069 445.819,357 443.75,354.861C441.681,352.722 440.639,349.778 440.639,346.028C440.639,342.181 441.597,339.139 443.528,336.944C445.444,334.736 448.083,333.625 451.431,333.625C454.556,333.625 457,334.583 458.819,336.472C460.625,338.361 461.514,340.972 461.514,344.278L461.514,346.986L445.806,346.986C445.875,349.278 446.5,351.028 447.653,352.264C448.833,353.5 450.458,354.111 452.583,354.111C453.986,354.111 455.278,353.972 456.486,353.708C457.681,353.444 458.972,353.014 460.347,352.403L460.347,356.472C459.125,357.056 457.889,357.472 456.639,357.708C455.389,357.958 453.958,358.069 452.347,358.069Z" style="fill:rgb(0,99,159);fill-rule:nonzero;"/>
        <path d="M488.056,357.653L483.028,357.653L483.028,343.111C483.028,341.292 482.681,339.958 482,339.069C481.319,338.181 480.25,337.736 478.792,337.736C476.861,337.736 475.458,338.361 474.542,339.611C473.639,340.875 473.194,342.972 473.194,345.903L473.194,357.653L468.181,357.653L468.181,334.056L472.097,334.056L472.806,337.153L473.056,337.153C473.708,336.028 474.667,335.167 475.917,334.556C477.167,333.944 478.528,333.625 480.014,333.625C483.639,333.625 486.042,334.875 487.222,337.347L487.569,337.347C488.264,336.181 489.25,335.264 490.514,334.611C491.764,333.958 493.222,333.625 494.861,333.625C497.667,333.625 499.736,334.347 501.014,335.764C502.306,337.181 502.944,339.361 502.944,342.264L502.944,357.653L497.931,357.653L497.931,343.111C497.931,341.292 497.583,339.958 496.903,339.069C496.208,338.181 495.125,337.736 493.681,337.736C491.736,337.736 490.306,338.333 489.417,339.556C488.514,340.764 488.056,342.639 488.056,345.153L488.056,357.653Z" style="fill:rgb(0,99,159);fill-rule:nonzero;"/>
        <path d="M520.292,337.431C518.694,337.431 517.417,337.931 516.458,338.944C515.5,339.958 514.917,341.431 514.75,343.361L525.444,343.361C525.417,341.417 524.944,339.931 524.042,338.931C523.125,337.931 521.875,337.431 520.292,337.431ZM521.208,358.069C517.542,358.069 514.667,357 512.597,354.861C510.528,352.722 509.5,349.778 509.5,346.028C509.5,342.181 510.458,339.139 512.375,336.944C514.292,334.736 516.931,333.625 520.292,333.625C523.403,333.625 525.861,334.583 527.667,336.472C529.472,338.361 530.375,340.972 530.375,344.278L530.375,346.986L514.667,346.986C514.736,349.278 515.347,351.028 516.5,352.264C517.681,353.5 519.319,354.111 521.431,354.111C522.833,354.111 524.125,353.972 525.319,353.708C526.528,353.444 527.819,353.014 529.194,352.403L529.194,356.472C527.972,357.056 526.75,357.472 525.486,357.708C524.236,357.958 522.806,358.069 521.208,358.069Z" style="fill:rgb(0,99,159);fill-rule:nonzero;"/>
        <path d="M557.778,357.653L552.736,357.653L552.736,343.153C552.736,341.333 552.375,339.972 551.653,339.069C550.917,338.181 549.75,337.736 548.153,337.736C546.042,337.736 544.486,338.347 543.514,339.597C542.528,340.861 542.042,342.958 542.042,345.903L542.042,357.653L537.028,357.653L537.028,334.056L540.958,334.056L541.653,337.153L541.917,337.153C542.625,336.028 543.625,335.167 544.944,334.556C546.25,333.944 547.694,333.625 549.292,333.625C554.944,333.625 557.778,336.514 557.778,342.264L557.778,357.653Z" style="fill:rgb(0,99,159);fill-rule:nonzero;"/>
        <path d="M574.5,354.028C575.722,354.028 576.944,353.833 578.167,353.444L578.167,357.222C577.611,357.458 576.903,357.667 576.028,357.833C575.153,357.986 574.25,358.069 573.306,358.069C568.556,358.069 566.194,355.569 566.194,350.569L566.194,337.861L562.958,337.861L562.958,335.639L566.417,333.806L568.125,328.819L571.208,328.819L571.208,334.056L577.931,334.056L577.931,337.861L571.208,337.861L571.208,350.486C571.208,351.694 571.528,352.583 572.125,353.153C572.736,353.736 573.528,354.028 574.5,354.028Z" style="fill:rgb(0,99,159);fill-rule:nonzero;"/>
        <path d="M594.667,327.819C594.667,326.931 594.903,326.292 595.375,325.903C595.847,325.514 596.431,325.319 597.111,325.319C597.861,325.319 598.458,325.542 598.931,325.972C599.375,326.417 599.597,327.028 599.597,327.819C599.597,328.583 599.361,329.194 598.903,329.639C598.431,330.083 597.833,330.306 597.111,330.306C596.431,330.306 595.847,330.097 595.375,329.694C594.903,329.278 594.667,328.653 594.667,327.819ZM591.139,354.236C592.958,354.236 594.417,353.722 595.528,352.708C596.625,351.694 597.167,350.264 597.167,348.444L597.167,346.389L594.139,346.514C591.778,346.597 590.069,347 589,347.708C587.917,348.403 587.389,349.486 587.389,350.931C587.389,351.986 587.694,352.792 588.319,353.375C588.944,353.944 589.889,354.236 591.139,354.236ZM586.278,327.819C586.278,326.931 586.514,326.292 587,325.903C587.472,325.514 588.042,325.319 588.722,325.319C589.486,325.319 590.083,325.542 590.528,325.972C590.972,326.417 591.208,327.028 591.208,327.819C591.208,328.569 590.972,329.167 590.514,329.625C590.069,330.083 589.472,330.306 588.722,330.306C588.042,330.306 587.472,330.097 587,329.694C586.514,329.278 586.278,328.653 586.278,327.819ZM598.611,357.653L597.597,354.361L597.431,354.361C596.292,355.806 595.139,356.778 594,357.306C592.847,357.819 591.361,358.069 589.556,358.069C587.236,358.069 585.431,357.444 584.125,356.194C582.833,354.944 582.181,353.181 582.181,350.889C582.181,348.458 583.083,346.625 584.889,345.389C586.708,344.153 589.444,343.472 593.139,343.361L597.222,343.222L597.222,341.972C597.222,340.472 596.861,339.333 596.167,338.597C595.458,337.847 594.361,337.472 592.889,337.472C591.667,337.472 590.514,337.653 589.417,338C588.292,338.361 587.236,338.778 586.208,339.264L584.583,335.681C585.875,335.014 587.264,334.5 588.792,334.153C590.306,333.806 591.75,333.625 593.097,333.625C596.097,333.625 598.375,334.292 599.903,335.597C601.431,336.903 602.181,338.958 602.181,341.764L602.181,357.653L598.611,357.653Z" style="fill:rgb(0,99,159);fill-rule:nonzero;"/>
        <path d="M622.097,333.625C623.125,333.625 623.958,333.708 624.597,333.847L624.111,338.514C623.403,338.347 622.653,338.264 621.889,338.264C619.889,338.264 618.264,338.917 617.014,340.222C615.778,341.542 615.153,343.222 615.153,345.319L615.153,357.653L610.153,357.653L610.153,334.056L614.069,334.056L614.736,338.222L614.986,338.222C615.764,336.819 616.778,335.694 618.042,334.875C619.306,334.042 620.653,333.625 622.097,333.625Z" style="fill:rgb(0,99,159);fill-rule:nonzero;"/>
        <path d="M649.819,357.653L644.778,357.653L644.778,343.111C644.778,341.292 644.444,339.958 643.764,339.069C643.069,338.181 642,337.736 640.556,337.736C638.625,337.736 637.208,338.361 636.306,339.611C635.403,340.875 634.944,342.972 634.944,345.903L634.944,357.653L629.931,357.653L629.931,334.056L633.861,334.056L634.569,337.153L634.819,337.153C635.472,336.028 636.431,335.167 637.667,334.556C638.917,333.944 640.278,333.625 641.764,333.625C645.389,333.625 647.806,334.875 648.986,337.347L649.319,337.347C650.014,336.181 651,335.264 652.264,334.611C653.542,333.958 654.986,333.625 656.611,333.625C659.431,333.625 661.486,334.347 662.764,335.764C664.056,337.181 664.694,339.361 664.694,342.264L664.694,357.653L659.681,357.653L659.681,343.111C659.681,341.292 659.333,339.958 658.653,339.069C657.972,338.181 656.889,337.736 655.444,337.736C653.5,337.736 652.069,338.333 651.167,339.556C650.264,340.764 649.819,342.639 649.819,345.153L649.819,357.653Z" style="fill:rgb(0,99,159);fill-rule:nonzero;"/>
        <path d="M682.042,337.431C680.444,337.431 679.167,337.931 678.208,338.944C677.25,339.958 676.667,341.431 676.5,343.361L687.194,343.361C687.167,341.417 686.708,339.931 685.792,338.931C684.889,337.931 683.625,337.431 682.042,337.431ZM682.958,358.069C679.292,358.069 676.417,357 674.361,354.861C672.278,352.722 671.25,349.778 671.25,346.028C671.25,342.181 672.208,339.139 674.125,336.944C676.042,334.736 678.694,333.625 682.042,333.625C685.167,333.625 687.611,334.583 689.417,336.472C691.222,338.361 692.125,340.972 692.125,344.278L692.125,346.986L676.417,346.986C676.486,349.278 677.097,351.028 678.264,352.264C679.431,353.5 681.069,354.111 683.194,354.111C684.583,354.111 685.875,353.972 687.083,353.708C688.292,353.444 689.583,353.014 690.958,352.403L690.958,356.472C689.736,357.056 688.5,357.472 687.25,357.708C685.986,357.958 684.569,358.069 682.958,358.069Z" style="fill:rgb(0,99,159);fill-rule:nonzero;"/>
        <path d="M708.083,354.028C710.153,354.028 711.639,353.444 712.583,352.292C713.528,351.125 714.014,349.25 714.042,346.639L714.042,345.944C714.042,342.972 713.542,340.861 712.583,339.597C711.611,338.347 710.097,337.736 708.042,337.736C706.278,337.736 704.917,338.444 703.958,339.875C703.014,341.306 702.542,343.333 702.542,345.986C702.542,348.597 703,350.597 703.931,351.972C704.847,353.333 706.236,354.028 708.083,354.028ZM706.736,358.069C703.792,358.069 701.5,357.014 699.847,354.875C698.208,352.75 697.375,349.75 697.375,345.903C697.375,342.028 698.208,339.014 699.889,336.861C701.556,334.708 703.861,333.625 706.833,333.625C709.917,333.625 712.278,334.778 713.903,337.069L714.167,337.069C713.917,335.375 713.792,334.042 713.792,333.056L713.792,324.458L718.833,324.458L718.833,357.653L714.917,357.653L714.042,354.556L713.792,354.556C712.194,356.903 709.833,358.069 706.736,358.069Z" style="fill:rgb(0,99,159);fill-rule:nonzero;"/>
        <path d="M731.972,357.653L726.958,357.653L726.958,334.056L731.972,334.056L731.972,357.653ZM726.667,327.819C726.667,326.917 726.903,326.222 727.403,325.736C727.889,325.264 728.583,325.014 729.5,325.014C730.375,325.014 731.056,325.264 731.556,325.736C732.042,326.222 732.292,326.917 732.292,327.819C732.292,328.667 732.042,329.333 731.556,329.833C731.056,330.319 730.375,330.569 729.5,330.569C728.583,330.569 727.889,330.319 727.403,329.833C726.903,329.333 726.667,328.667 726.667,327.819Z" style="fill:rgb(0,99,159);fill-rule:nonzero;"/>
        <path d="M755.861,357.653L737.972,357.653L737.972,354.556L749.889,337.903L738.694,337.903L738.694,334.056L755.514,334.056L755.514,337.556L743.847,353.806L755.861,353.806L755.861,357.653Z" style="fill:rgb(0,99,159);fill-rule:nonzero;"/>
        <path d="M766.958,357.653L761.931,357.653L761.931,334.056L766.958,334.056L766.958,357.653ZM761.639,327.819C761.639,326.917 761.889,326.222 762.375,325.736C762.861,325.264 763.556,325.014 764.472,325.014C765.361,325.014 766.056,325.264 766.542,325.736C767.014,326.222 767.264,326.917 767.264,327.819C767.264,328.667 767.014,329.333 766.542,329.833C766.056,330.319 765.361,330.569 764.472,330.569C763.556,330.569 762.861,330.319 762.375,329.833C761.889,329.333 761.639,328.667 761.639,327.819Z" style="fill:rgb(0,99,159);fill-rule:nonzero;"/>
        <path d="M795.833,357.653L790.792,357.653L790.792,343.153C790.792,341.333 790.417,339.972 789.708,339.069C788.958,338.181 787.806,337.736 786.208,337.736C784.097,337.736 782.542,338.347 781.556,339.597C780.583,340.861 780.083,342.958 780.083,345.903L780.083,357.653L775.083,357.653L775.083,334.056L779,334.056L779.708,337.153L779.958,337.153C780.667,336.028 781.681,335.167 783,334.556C784.292,333.944 785.75,333.625 787.347,333.625C792.986,333.625 795.833,336.514 795.833,342.264L795.833,357.653Z" style="fill:rgb(0,99,159);fill-rule:nonzero;"/>
        <path d="M306.514,406.181L301.5,406.181L301.5,382.583L306.514,382.583L306.514,406.181ZM301.194,376.347C301.194,375.444 301.444,374.764 301.931,374.278C302.431,373.792 303.125,373.556 304.042,373.556C304.917,373.556 305.611,373.792 306.097,374.278C306.583,374.764 306.833,375.444 306.833,376.347C306.833,377.194 306.583,377.875 306.097,378.361C305.611,378.847 304.917,379.097 304.042,379.097C303.125,379.097 302.431,378.847 301.931,378.361C301.444,377.875 301.194,377.194 301.194,376.347Z" style="fill:rgb(0,99,159);fill-rule:nonzero;"/>
        <path d="M334.069,406.181L329.042,406.181L329.042,391.681C329.042,389.861 328.667,388.5 327.944,387.597C327.208,386.708 326.056,386.264 324.458,386.264C322.347,386.264 320.792,386.889 319.806,388.139C318.819,389.389 318.347,391.486 318.347,394.431L318.347,406.181L313.333,406.181L313.333,382.583L317.25,382.583L317.944,385.681L318.208,385.681C318.917,384.569 319.931,383.694 321.25,383.083C322.542,382.472 323.986,382.167 325.597,382.167C331.25,382.167 334.069,385.042 334.069,390.806L334.069,406.181Z" style="fill:rgb(0,99,159);fill-rule:nonzero;"/>
        <path d="M361,402.556C363.056,402.556 364.556,401.972 365.5,400.819C366.431,399.653 366.917,397.778 366.944,395.167L366.944,394.472C366.944,391.5 366.458,389.389 365.5,388.139C364.528,386.889 363.014,386.264 360.944,386.264C359.194,386.264 357.833,386.972 356.889,388.403C355.917,389.833 355.444,391.875 355.444,394.514C355.444,397.125 355.917,399.125 356.833,400.5C357.764,401.875 359.153,402.556 361,402.556ZM359.653,406.611C356.708,406.611 354.403,405.542 352.764,403.403C351.111,401.278 350.278,398.278 350.278,394.431C350.278,390.569 351.125,387.542 352.792,385.403C354.472,383.236 356.778,382.167 359.736,382.167C362.833,382.167 365.194,383.319 366.819,385.597L367.069,385.597C366.833,383.903 366.708,382.569 366.708,381.597L366.708,372.986L371.736,372.986L371.736,406.181L367.819,406.181L366.944,403.083L366.708,403.083C365.111,405.431 362.75,406.611 359.653,406.611Z" style="fill:rgb(0,99,159);fill-rule:nonzero;"/>
        <path d="M387.944,385.958C386.347,385.958 385.069,386.458 384.111,387.472C383.153,388.486 382.583,389.958 382.403,391.889L393.111,391.889C393.083,389.944 392.611,388.472 391.694,387.472C390.792,386.458 389.542,385.958 387.944,385.958ZM388.861,406.611C385.194,406.611 382.319,405.542 380.264,403.403C378.181,401.264 377.153,398.319 377.153,394.556C377.153,390.708 378.111,387.681 380.042,385.472C381.958,383.264 384.583,382.167 387.944,382.167C391.056,382.167 393.514,383.111 395.319,385C397.139,386.889 398.028,389.5 398.028,392.806L398.028,395.514L382.306,395.514C382.389,397.806 383.014,399.569 384.167,400.792C385.333,402.028 386.986,402.639 389.097,402.639C390.486,402.639 391.792,402.514 392.986,402.25C394.194,401.986 395.486,401.542 396.861,400.931L396.861,405.014C395.639,405.583 394.403,406 393.153,406.25C391.903,406.486 390.472,406.611 388.861,406.611Z" style="fill:rgb(0,99,159);fill-rule:nonzero;"/>
        <path d="M415.347,382.167C416.347,382.167 417.181,382.236 417.833,382.375L417.347,387.056C416.639,386.875 415.903,386.792 415.125,386.792C413.125,386.792 411.5,387.444 410.264,388.764C409.014,390.069 408.389,391.764 408.389,393.861L408.389,406.181L403.375,406.181L403.375,382.583L407.306,382.583L407.958,386.75L408.222,386.75C409,385.347 410.028,384.222 411.278,383.403C412.542,382.583 413.889,382.167 415.347,382.167Z" style="fill:rgb(0,99,159);fill-rule:nonzero;"/>
        <path d="M437.278,390.542C437.278,394.389 438.042,397.306 439.597,399.278C441.153,401.264 443.431,402.264 446.486,402.264C449.514,402.264 451.806,401.278 453.347,399.319C454.875,397.347 455.653,394.431 455.653,390.542C455.653,386.722 454.889,383.819 453.375,381.847C451.833,379.875 449.556,378.875 446.528,378.875C443.472,378.875 441.167,379.875 439.611,381.847C438.042,383.819 437.278,386.722 437.278,390.542ZM461.069,390.542C461.069,395.625 459.792,399.569 457.264,402.389C454.722,405.194 451.139,406.611 446.486,406.611C441.778,406.611 438.167,405.208 435.639,402.417C433.125,399.625 431.847,395.653 431.847,390.5C431.847,385.361 433.125,381.403 435.667,378.639C438.194,375.889 441.833,374.514 446.528,374.514C451.167,374.514 454.736,375.903 457.278,378.708C459.806,381.514 461.069,385.458 461.069,390.542Z" style="fill:rgb(0,99,159);fill-rule:nonzero;"/>
        <path d="M487.625,406.181L482.611,406.181L482.611,391.681C482.611,389.861 482.236,388.5 481.5,387.597C480.778,386.708 479.611,386.264 478.028,386.264C475.903,386.264 474.347,386.889 473.375,388.139C472.389,389.389 471.903,391.486 471.903,394.431L471.903,406.181L466.889,406.181L466.889,382.583L470.806,382.583L471.528,385.681L471.764,385.681C472.472,384.569 473.486,383.694 474.806,383.083C476.111,382.472 477.556,382.167 479.153,382.167C484.806,382.167 487.625,385.042 487.625,390.806L487.625,406.181Z" style="fill:rgb(0,99,159);fill-rule:nonzero;"/>
        <path d="M499.097,393.722L501.944,390.181L509.069,382.583L514.847,382.583L505.361,392.722L515.444,406.181L509.556,406.181L501.986,395.833L499.236,398.097L499.236,406.181L494.264,406.181L494.264,372.986L499.236,372.986L499.236,389.181L498.972,393.722L499.097,393.722Z" style="fill:rgb(0,99,159);fill-rule:nonzero;"/>
        <path d="M522.653,394.347C522.653,399.792 524.653,402.514 528.681,402.514C532.653,402.514 534.653,399.792 534.653,394.347C534.653,388.958 532.639,386.264 528.625,386.264C526.528,386.264 525,386.958 524.056,388.347C523.111,389.75 522.653,391.736 522.653,394.347ZM539.819,394.347C539.819,398.194 538.819,401.208 536.833,403.361C534.875,405.528 532.111,406.611 528.597,406.611C526.389,406.611 524.431,406.111 522.75,405.111C521.056,404.125 519.75,402.694 518.847,400.819C517.931,398.958 517.486,396.806 517.486,394.347C517.486,390.514 518.458,387.528 520.417,385.389C522.389,383.236 525.139,382.167 528.722,382.167C532.139,382.167 534.833,383.264 536.833,385.458C538.819,387.653 539.819,390.625 539.819,394.347Z" style="fill:rgb(0,99,159);fill-rule:nonzero;"/>
        <rect x="545.222" y="372.986" width="4.99999" height="33.1944" style="fill:rgb(0,99,159);fill-rule:nonzero;"/>
        <path d="M560.792,394.347C560.792,399.792 562.819,402.514 566.833,402.514C570.806,402.514 572.806,399.792 572.806,394.347C572.806,388.958 570.792,386.264 566.792,386.264C564.681,386.264 563.167,386.958 562.222,388.347C561.278,389.75 560.792,391.736 560.792,394.347ZM577.958,394.347C577.958,398.194 576.986,401.208 575,403.361C573.028,405.528 570.278,406.611 566.75,406.611C564.542,406.611 562.597,406.111 560.903,405.111C559.208,404.125 557.903,402.694 557,400.819C556.097,398.958 555.625,396.806 555.625,394.347C555.625,390.514 556.611,387.528 558.583,385.389C560.542,383.236 563.306,382.167 566.875,382.167C570.292,382.167 572.986,383.264 574.986,385.458C576.972,387.653 577.958,390.625 577.958,394.347Z" style="fill:rgb(0,99,159);fill-rule:nonzero;"/>
        <path d="M586.917,390.222C586.917,391.708 587.292,392.847 588.056,393.639C588.819,394.444 589.917,394.833 591.333,394.833C594.236,394.833 595.681,393.278 595.681,390.181C595.681,388.653 595.319,387.472 594.597,386.639C593.889,385.806 592.792,385.389 591.333,385.389C589.889,385.389 588.792,385.806 588.042,386.625C587.292,387.444 586.917,388.653 586.917,390.222ZM584.764,409.847C584.764,410.931 585.25,411.764 586.222,412.347C587.194,412.931 588.569,413.222 590.319,413.222C593.056,413.222 595.083,412.833 596.431,412.042C597.764,411.264 598.431,410.222 598.431,408.931C598.431,407.917 598.056,407.181 597.333,406.75C596.611,406.306 595.236,406.097 593.25,406.097L589.458,406.097C588.014,406.097 586.875,406.431 586.042,407.111C585.181,407.792 584.764,408.694 584.764,409.847ZM603.292,382.583L603.292,385.347L599.264,386.097C599.639,386.583 599.944,387.194 600.181,387.917C600.417,388.653 600.542,389.417 600.542,390.222C600.542,392.667 599.708,394.569 598.028,395.972C596.347,397.361 594.042,398.056 591.097,398.056C590.347,398.056 589.667,398 589.042,397.889C587.972,398.556 587.431,399.333 587.431,400.236C587.431,400.778 587.681,401.181 588.181,401.444C588.694,401.708 589.611,401.847 590.958,401.847L595.083,401.847C597.681,401.847 599.667,402.403 601.014,403.514C602.361,404.625 603.042,406.222 603.042,408.319C603.042,410.986 601.931,413.042 599.736,414.5C597.528,415.958 594.333,416.667 590.181,416.667C586.972,416.667 584.514,416.097 582.819,414.972C581.125,413.833 580.292,412.208 580.292,410.097C580.292,408.653 580.736,407.431 581.667,406.444C582.583,405.458 583.847,404.778 585.514,404.389C584.833,404.111 584.292,403.653 583.847,403.014C583.417,402.389 583.208,401.708 583.208,401.014C583.208,400.139 583.458,399.389 583.944,398.778C584.444,398.167 585.194,397.569 586.167,396.972C584.944,396.444 583.944,395.583 583.194,394.403C582.431,393.208 582.056,391.819 582.056,390.222C582.056,387.667 582.861,385.681 584.472,384.278C586.083,382.875 588.389,382.167 591.375,382.167C592.042,382.167 592.736,382.208 593.472,382.306C594.208,382.403 594.75,382.5 595.125,382.583L603.292,382.583Z" style="fill:rgb(0,99,159);fill-rule:nonzero;"/>
        <path d="M612.319,406.181L607.319,406.181L607.319,382.583L612.319,382.583L612.319,406.181ZM607.014,376.347C607.014,375.444 607.264,374.764 607.75,374.278C608.25,373.792 608.944,373.556 609.847,373.556C610.736,373.556 611.431,373.792 611.917,374.278C612.403,374.764 612.653,375.444 612.653,376.347C612.653,377.194 612.403,377.875 611.917,378.361C611.431,378.847 610.736,379.097 609.847,379.097C608.944,379.097 608.25,378.847 607.75,378.361C607.264,377.875 607.014,377.194 607.014,376.347Z" style="fill:rgb(0,99,159);fill-rule:nonzero;"/>
        <path d="M628.542,385.958C626.931,385.958 625.667,386.458 624.708,387.472C623.75,388.486 623.167,389.958 622.986,391.889L633.694,391.889C633.667,389.944 633.194,388.472 632.292,387.472C631.375,386.458 630.125,385.958 628.542,385.958ZM629.444,406.611C625.792,406.611 622.917,405.542 620.847,403.403C618.778,401.264 617.736,398.319 617.736,394.556C617.736,390.708 618.708,387.681 620.625,385.472C622.542,383.264 625.181,382.167 628.542,382.167C631.653,382.167 634.111,383.111 635.917,385C637.722,386.889 638.625,389.5 638.625,392.806L638.625,395.514L622.917,395.514C622.986,397.806 623.597,399.569 624.75,400.792C625.931,402.028 627.569,402.639 629.681,402.639C631.083,402.639 632.375,402.514 633.569,402.25C634.778,401.986 636.069,401.542 637.444,400.931L637.444,405.014C636.222,405.583 635,406 633.736,406.25C632.486,406.486 631.056,406.611 629.444,406.611Z" style="fill:rgb(0,99,159);fill-rule:nonzero;"/>
        <path d="M290.264,248.139L271.5,248.139L251.069,215.292L244.083,220.306L244.083,248.139L227.556,248.139L227.556,170.181L244.083,170.181L244.083,205.861L250.597,196.681L271.708,170.181L290.056,170.181L262.861,204.681L290.264,248.139Z" style="fill:rgb(0,99,159);fill-rule:nonzero;"/>
        <path d="M319.403,209.056C319.403,217.764 321.042,224.319 324.347,228.736C327.653,233.139 332.597,235.333 339.181,235.333C352.361,235.333 358.958,226.583 358.958,209.056C358.958,191.5 352.403,182.722 339.278,182.722C332.708,182.722 327.75,184.931 324.417,189.361C321.069,193.778 319.403,200.347 319.403,209.056ZM376.278,209.056C376.278,221.958 373.083,231.875 366.694,238.806C360.292,245.736 351.111,249.208 339.181,249.208C327.222,249.208 318.056,245.736 311.667,238.806C305.264,231.875 302.056,221.931 302.056,208.944C302.056,195.972 305.278,186.069 311.681,179.222C318.111,172.389 327.306,168.958 339.278,168.958C351.264,168.958 360.417,172.403 366.764,179.306C373.111,186.194 376.278,196.111 376.278,209.056Z" style="fill:rgb(0,99,159);fill-rule:nonzero;"/>
        <path d="M460.597,248.139L441.833,248.139L421.417,215.292L414.431,220.306L414.431,248.139L397.889,248.139L397.889,170.181L414.431,170.181L414.431,205.861L420.931,196.681L442.042,170.181L460.389,170.181L433.194,204.681L460.597,248.139Z" style="fill:rgb(0,99,159);fill-rule:nonzero;"/>
        <path d="M489.736,209.056C489.736,217.764 491.389,224.319 494.694,228.736C498,233.139 502.944,235.333 509.528,235.333C522.708,235.333 529.292,226.583 529.292,209.056C529.292,191.5 522.75,182.722 509.625,182.722C503.056,182.722 498.083,184.931 494.75,189.361C491.403,193.778 489.736,200.347 489.736,209.056ZM546.625,209.056C546.625,221.958 543.431,231.875 537.042,238.806C530.639,245.736 521.458,249.208 509.528,249.208C497.583,249.208 488.403,245.736 482.014,238.806C475.611,231.875 472.417,221.931 472.417,208.944C472.417,195.972 475.625,186.069 482.028,179.222C488.458,172.389 497.653,168.958 509.625,168.958C521.611,168.958 530.764,172.403 537.125,179.306C543.458,186.194 546.625,196.111 546.625,209.056Z" style="fill:rgb(0,99,159);fill-rule:nonzero;"/>
        <path d="M637.403,248.139L616.389,248.139L582.486,189.167L582,189.167C582.667,199.583 583.014,207.014 583.014,211.458L583.014,248.139L568.25,248.139L568.25,170.181L589.097,170.181L622.944,228.569L623.333,228.569C622.792,218.444 622.514,211.278 622.514,207.083L622.514,170.181L637.403,170.181L637.403,248.139Z" style="fill:rgb(0,99,159);fill-rule:nonzero;"/>
        <path d="M177.889,338.125C184.958,339.667 192.25,340.653 199.694,341.028L199.694,321.75C193.972,321.417 188.306,320.806 182.819,319.681L177.889,338.125Z" style="fill:rgb(0,99,159);fill-rule:nonzero;"/>
        <path d="M182.819,93.0555C188.306,91.9167 193.972,91.3055 199.694,90.9861L199.694,71.6944C192.25,72.0694 184.958,73.0694 177.889,74.5972L182.819,93.0555Z" style="fill:rgb(0,99,159);fill-rule:nonzero;"/>
        <path d="M115.847,106.528L129.444,120.097C133.667,116.319 138.125,112.806 142.889,109.681L133.333,93.125C127.139,97.125 121.292,101.597 115.847,106.528Z" style="fill:rgb(0,99,159);fill-rule:nonzero;"/>
        <path d="M93.125,133.361L109.667,142.903C112.792,138.139 116.319,133.694 120.083,129.458L106.514,115.875C101.583,121.306 97.1111,127.167 93.125,133.361Z" style="fill:rgb(0,99,159);fill-rule:nonzero;"/>
        <path d="M78.0278,165.139L96.5278,170.111C98.3333,164.667 100.542,159.431 103.083,154.389L86.4861,144.819C83.1528,151.306 80.3056,158.083 78.0278,165.139Z" style="fill:rgb(0,99,159);fill-rule:nonzero;"/>
        <path d="M234.806,74.5833C227.736,73.0556 220.444,72.0694 213,71.6944L213,90.9722C218.75,91.3055 224.389,91.9028 229.861,93.0417L234.806,74.5833Z" style="fill:rgb(0,99,159);fill-rule:nonzero;"/>
        <path d="M71.7083,199.75L90.9861,199.75C91.3194,194.014 91.9306,188.333 93.0556,182.847L74.6111,177.903C73.0833,185 72.0972,192.292 71.7083,199.75Z" style="fill:rgb(0,99,159);fill-rule:nonzero;"/>
        <path d="M242.597,96.5139C248.042,98.3055 253.292,100.528 258.347,103.069L267.931,86.4583C261.431,83.125 254.625,80.2778 247.583,78L242.597,96.5139Z" style="fill:rgb(0,99,159);fill-rule:nonzero;"/>
        <path d="M267.931,326.25L258.347,309.667C253.292,312.208 248.042,314.417 242.597,316.222L247.569,334.722C254.625,332.444 261.431,329.611 267.931,326.25Z" style="fill:rgb(0,99,159);fill-rule:nonzero;"/>
        <path d="M229.875,319.694C224.389,320.819 218.75,321.431 213,321.75L213,341.028C220.444,340.667 227.736,339.667 234.806,338.139L229.875,319.694Z" style="fill:rgb(0,99,159);fill-rule:nonzero;"/>
        <path d="M74.5972,234.833L93.0556,229.889C91.9306,224.389 91.3194,218.736 90.9861,213L71.7083,213C72.0972,220.444 73.0833,227.736 74.5972,234.833Z" style="fill:rgb(0,99,159);fill-rule:nonzero;"/>
        <path d="M120.083,283.278C116.319,279.042 112.806,274.597 109.667,269.819L93.125,279.375C97.125,285.556 101.583,291.431 106.514,296.861L120.083,283.278Z" style="fill:rgb(0,99,159);fill-rule:nonzero;"/>
        <path d="M103.083,258.333C100.556,253.292 98.3333,248.056 96.5278,242.625L78.0278,247.583C80.3056,254.639 83.1528,261.431 86.4861,267.917L103.083,258.333Z" style="fill:rgb(0,99,159);fill-rule:nonzero;"/>
        <path d="M170.097,316.194C164.653,314.389 159.417,312.181 154.361,309.639L144.792,326.236C151.278,329.583 158.083,332.431 165.125,334.708L170.097,316.194Z" style="fill:rgb(0,99,159);fill-rule:nonzero;"/>
        <path d="M186.292,306.75C190.667,307.625 195.153,308.139 199.694,308.431L199.694,288.694C196.889,288.444 194.139,288.069 191.417,287.569L186.292,306.75Z" style="fill:rgb(4,62,97);fill-rule:nonzero;"/>
        <path d="M191.431,125.167C194.139,124.653 196.889,124.306 199.694,124.042L199.694,104.292C195.153,104.583 190.667,105.097 186.292,105.972L191.431,125.167Z" style="fill:rgb(4,62,97);fill-rule:nonzero;"/>
        <path d="M173.542,109.458C169.236,110.917 165.083,112.667 161.056,114.681L170.917,131.764C173.431,130.556 176,129.5 178.667,128.556L173.542,109.458Z" style="fill:rgb(4,62,97);fill-rule:nonzero;"/>
        <path d="M129.528,138.903C126.542,142.292 123.736,145.806 121.236,149.569L138.375,159.472C139.958,157.194 141.653,154.986 143.472,152.861L129.528,138.903Z" style="fill:rgb(4,62,97);fill-rule:nonzero;"/>
        <path d="M131.722,170.931L114.667,161.083C112.681,165.097 110.917,169.264 109.458,173.556L128.528,178.681C129.472,176.014 130.542,173.444 131.722,170.931Z" style="fill:rgb(4,62,97);fill-rule:nonzero;"/>
        <path d="M226.417,105.958C222.042,105.083 217.556,104.583 213,104.292L213,124.042C215.806,124.306 218.569,124.653 221.278,125.167L226.417,105.958Z" style="fill:rgb(4,62,97);fill-rule:nonzero;"/>
        <path d="M105.972,186.306C105.097,190.694 104.597,195.194 104.292,199.75L124.042,199.75C124.278,196.931 124.639,194.167 125.153,191.444L105.972,186.306Z" style="fill:rgb(4,62,97);fill-rule:nonzero;"/>
        <path d="M239.139,303.306C243.458,301.833 247.611,300.069 251.653,298.069L241.792,280.986C239.25,282.181 236.722,283.236 234.014,284.194L239.139,303.306Z" style="fill:rgb(4,62,97);fill-rule:nonzero;"/>
        <path d="M221.278,287.569C218.569,288.069 215.806,288.444 213,288.694L213,308.431C217.542,308.139 222.042,307.639 226.403,306.764L221.278,287.569Z" style="fill:rgb(4,62,97);fill-rule:nonzero;"/>
        <path d="M104.292,213C104.597,217.556 105.097,222.042 105.972,226.417L125.153,221.278C124.639,218.569 124.278,215.806 124.042,213L104.292,213Z" style="fill:rgb(4,62,97);fill-rule:nonzero;"/>
        <path d="M128.528,234.056L109.458,239.167C110.917,243.458 112.681,247.625 114.681,251.653L131.722,241.806C130.542,239.292 129.472,236.722 128.528,234.056Z" style="fill:rgb(4,62,97);fill-rule:nonzero;"/>
        <path d="M178.667,284.194C176,283.236 173.431,282.181 170.903,280.986L161.056,298.042C165.097,300.042 169.25,301.806 173.542,303.264L178.667,284.194Z" style="fill:rgb(4,62,97);fill-rule:nonzero;"/>
        <path d="M159.458,274.333C157.167,272.764 154.958,271.069 152.847,269.236L138.889,283.194C142.264,286.167 145.806,288.986 149.556,291.486L159.458,274.333Z" style="fill:rgb(4,62,97);fill-rule:nonzero;"/>
        <path d="M166.042,30.3611C176.917,27.875 188.167,26.3611 199.694,25.9444L199.694,0C185.903,0.458336 172.347,2.22222 159.319,5.29165L166.042,30.3611Z" style="fill:rgb(17,174,229);fill-rule:nonzero;"/>
        <path d="M153.25,33.7361L146.542,8.68053C133.389,12.7083 120.764,17.9583 108.889,24.3333L121.861,46.7778C131.806,41.5 142.306,37.1111 153.25,33.7361Z" style="fill:rgb(17,174,229);fill-rule:nonzero;"/>
        <path d="M110.403,53.4306L97.4167,30.9306C85.8472,38.1389 75.0278,46.5 65.0972,55.7917L83.4444,74.125C91.75,66.4166 100.764,59.4861 110.403,53.4306Z" style="fill:rgb(17,174,229);fill-rule:nonzero;"/>
        <path d="M74.125,83.4722L55.7639,65.1111C46.4722,75.0416 38.1389,85.8611 30.9167,97.4305L53.4167,110.431C59.4583,100.778 66.4028,91.7639 74.125,83.4722Z" style="fill:rgb(17,174,229);fill-rule:nonzero;"/>
        <path d="M253.347,5.29165C240.375,2.22222 226.806,0.444444 213,0L213,25.9444C224.528,26.3611 235.764,27.8611 246.653,30.3333L253.347,5.29165Z" style="fill:rgb(17,174,229);fill-rule:nonzero;"/>
        <path d="M30.375,166.056L5.27778,159.333C2.20833,172.361 0.444444,185.917 0,199.75L25.9583,199.75C26.375,188.208 27.8889,176.944 30.375,166.056Z" style="fill:rgb(17,174,229);fill-rule:nonzero;"/>
        <path d="M303.819,24.3333C291.944,17.9583 279.319,12.7083 266.181,8.68053L259.472,33.7222C270.417,37.0833 280.903,41.4722 290.861,46.75L303.819,24.3333Z" style="fill:rgb(17,174,229);fill-rule:nonzero;"/>
        <path d="M213,386.778L213,412.708C226.806,412.278 240.375,410.514 253.375,407.458L246.653,382.375C235.778,384.861 224.542,386.361 213,386.778Z" style="fill:rgb(17,174,229);fill-rule:nonzero;"/>
        <path d="M25.9583,213L0,213C0.444444,226.806 2.20833,240.361 5.27778,253.403L30.375,246.681C27.8889,235.792 26.375,224.528 25.9583,213Z" style="fill:rgb(17,174,229);fill-rule:nonzero;"/>
        <path d="M53.4167,302.306L30.9167,315.292C38.1389,326.861 46.4722,337.681 55.7639,347.625L74.125,329.264C66.4167,320.958 59.4722,311.944 53.4167,302.306Z" style="fill:rgb(17,174,229);fill-rule:nonzero;"/>
        <path d="M33.7361,259.458L8.68056,266.181C12.6667,279.333 17.9444,291.944 24.3056,303.819L46.7778,290.847C41.5,280.903 37.1111,270.403 33.7361,259.458Z" style="fill:rgb(17,174,229);fill-rule:nonzero;"/>
        <path d="M108.889,388.417C120.764,394.792 133.389,400.056 146.542,404.056L153.25,378.986C142.306,375.611 131.806,371.222 121.875,365.944L108.889,388.417Z" style="fill:rgb(17,174,229);fill-rule:nonzero;"/>
        <path d="M83.4583,338.597L65.0833,356.944C75.0278,366.25 85.8472,374.583 97.4167,381.792L110.417,359.292C100.778,353.236 91.75,346.306 83.4583,338.597Z" style="fill:rgb(17,174,229);fill-rule:nonzero;"/>
        <path d="M169.5,369.444C179.278,371.667 189.361,373.028 199.694,373.444L199.694,354.361C191.056,353.958 182.625,352.833 174.431,351.028L169.5,369.444Z" style="fill:rgb(20,128,196);fill-rule:nonzero;"/>
        <path d="M174.431,61.7083C182.625,59.9028 191.056,58.7639 199.694,58.375L199.694,39.2639C189.361,39.6944 179.264,41.0556 169.5,43.2778L174.431,61.7083Z" style="fill:rgb(20,128,196);fill-rule:nonzero;"/>
        <path d="M128.556,58.3889L138.083,74.9028C145.597,71 153.472,67.6944 161.653,65.0972L156.708,46.6389C146.903,49.7083 137.5,53.6667 128.556,58.3889Z" style="fill:rgb(20,128,196);fill-rule:nonzero;"/>
        <path d="M92.9167,83.6111L106.375,97.0694C112.667,91.3194 119.444,86.1389 126.639,81.5278L117.097,65.0278C108.486,70.4861 100.389,76.7083 92.9167,83.6111Z" style="fill:rgb(20,128,196);fill-rule:nonzero;"/>
        <path d="M46.6528,156.75L65.0972,161.681C67.6944,153.486 70.9861,145.625 74.9028,138.125L58.3889,128.583C53.6667,137.514 49.7083,146.931 46.6528,156.75Z" style="fill:rgb(20,128,196);fill-rule:nonzero;"/>
        <path d="M243.194,43.25C233.431,41.0417 223.333,39.6805 213,39.2639L213,58.375C221.639,58.7639 230.069,59.9028 238.264,61.6944L243.194,43.25Z" style="fill:rgb(20,128,196);fill-rule:nonzero;"/>
        <path d="M39.2778,199.75L58.3889,199.75C58.7778,191.111 59.9167,182.653 61.7083,174.458L43.2778,169.514C41.0694,179.306 39.7083,189.403 39.2778,199.75Z" style="fill:rgb(20,128,196);fill-rule:nonzero;"/>
        <path d="M238.264,351.042C230.083,352.833 221.639,353.972 213,354.361L213,373.444C223.333,373.042 233.431,371.681 243.194,369.458L238.264,351.042Z" style="fill:rgb(20,128,196);fill-rule:nonzero;"/>
        <path d="M43.2778,243.222L61.7083,238.278C59.9167,230.083 58.7778,221.639 58.3889,213L39.2778,213C39.7083,223.347 41.0694,233.444 43.2778,243.222Z" style="fill:rgb(20,128,196);fill-rule:nonzero;"/>
        <path d="M97.0556,306.333C91.3056,300.042 86.1389,293.264 81.5417,286.069L65.0278,295.597C70.4861,304.222 76.7083,312.319 83.5972,319.792L97.0556,306.333Z" style="fill:rgb(20,128,196);fill-rule:nonzero;"/>
        <path d="M74.9028,274.611C71,267.097 67.6944,259.236 65.0972,251.056L46.6667,256C49.7083,265.806 53.6806,275.208 58.3889,284.153L74.9028,274.611Z" style="fill:rgb(20,128,196);fill-rule:nonzero;"/>
        <path d="M126.639,331.181C119.444,326.583 112.667,321.403 106.389,315.667L92.9167,329.111C100.389,336.028 108.486,342.222 117.097,347.694L126.639,331.181Z" style="fill:rgb(20,128,196);fill-rule:nonzero;"/>
    </g>
</svg>