<svg xmlns="http://www.w3.org/2000/svg" xmlns:xlink="http://www.w3.org/1999/xlink" width="100%" height="100%" viewBox="0 0 2362 1016" version="1.1" xml:space="preserve" style="fill-rule:evenodd;clip-rule:evenodd;stroke-linejoin:round;stroke-miterlimit:1.41421;">
    <g>
        <path d="M500.042,391.694C500.75,363.944 508.444,335.667 523.083,317.639C527.097,312.694 531.403,308.5 535.944,304.917C547.583,295.764 560.958,291.028 576.306,291.028C589.125,291.028 599.597,293.972 607.736,299.847C615.861,305.722 622.278,313.347 626.958,322.653C631.222,331.375 634.319,342.222 636.25,355.208C638.181,368.181 639.486,393.611 639.486,404.972L500.069,422.792C498.931,411.833 499.819,400.444 500.042,391.694ZM430.972,397.625C424.292,427.764 413.611,454.75 398.944,478.597C384.792,502.167 366.444,520.528 343.917,533.611C321.375,546.722 296.083,553.278 268.056,553.278C238.181,553.278 212.5,546.792 191.014,533.819C169.528,520.847 151.708,502.833 137.556,479.764C122.889,456.181 112.139,429.194 105.333,398.806C98.5139,368.403 95.1111,334.333 95.1111,296.611C95.1111,262.556 98.3194,230.056 104.736,199.125C111.167,168.222 120.931,141.222 134.014,118.167C147.917,94.0556 165.861,74.8055 187.875,60.3889C209.889,45.9861 236.611,38.7777 268.056,38.7777C296.083,38.7777 320.986,44.9861 342.736,57.4444C364.486,69.8889 382.569,87.2499 396.972,109.514C411.389,132.056 422.319,159.306 429.792,191.278C437.264,223.25 441,258.361 441,296.611C441,333.819 437.667,367.5 430.972,397.625ZM685.208,493.278C673.014,515.361 660.361,530.639 647.236,539.125C634.125,547.611 618.5,551.847 600.417,551.847C582.708,551.847 567.472,548.431 554.653,541.611C541.833,534.778 531.458,525.444 523.542,513.639C515.403,501.403 508.278,486.222 505.708,471.139C504.667,465.139 503.361,459.472 503.153,452.833L699.736,427.667L699.25,397.194C699.25,379.097 696.958,362.306 692.403,346.861C687.806,331.403 680.847,317.972 671.5,306.583C661.722,294.597 649.014,285.139 633.347,278.208C617.694,271.306 598.889,267.833 576.931,267.833C562.056,267.833 548.278,270.125 535.444,274.417C533.458,239.014 526.792,206.236 515.278,176.139C501.403,139.847 482.139,108.861 457.5,83.1806C433.667,58.0278 405.361,38.5139 372.611,24.625C339.847,10.7361 305,3.79162 268.056,3.79162C232.417,3.79162 198.292,10.6111 165.667,24.2222C133.042,37.8472 104.417,57.5139 79.7778,83.1806C54.8889,109.125 35.3611,139.847 21.2083,175.361C7.06944,210.861 0,251.278 0,296.611C0,338.014 6.73611,376.861 20.2361,413.153C33.7361,449.444 52.2639,480.292 75.8472,505.708C99.4306,531.653 127.667,551.903 160.556,566.444C193.444,580.972 229.278,588.25 268.056,588.25C304.472,588.25 338.806,581.431 371.028,567.819C403.264,554.194 431.569,534.806 455.931,509.639C456.222,509.361 456.444,509.042 456.722,508.764C461.611,519.167 467.417,528.833 474.417,537.528C486.208,552.153 501.222,563.75 519.417,572.292C537.611,580.847 558.819,585.111 583.014,585.111C610.486,585.111 634.778,577.972 655.931,563.75C677.097,549.528 693.958,530.403 706.569,506.403L685.208,493.278Z" style="fill:rgb(102,106,107);fill-rule:nonzero;"/>
        <path d="M1288.9,351.458C1282.61,352.25 1274.17,353.486 1263.54,355.181C1252.93,356.903 1244.04,358.764 1237.81,362.458C1226.1,369.403 1216.49,378.597 1216.18,405.486L1216.18,448.722C1216.18,480.167 1216.37,501.389 1216.76,512.403C1217.17,523.403 1217.63,532.444 1218.15,539.514C1183.29,555.25 1148.58,567.292 1113.99,575.681C1079.4,584.069 1045.47,588.25 1012.19,588.25C976.556,588.25 942.222,581.556 909.208,568.194C876.194,554.819 847.375,535.806 822.736,511.167C797.847,486.25 778.056,455.972 763.375,420.319C748.708,384.653 741.375,344.792 741.375,300.736C741.375,258.264 748.389,218.861 762.403,182.556C776.417,146.236 796.264,114.708 821.958,87.9583C846.847,61.75 876.528,41.3611 910.986,26.7916C945.431,12.2361 982.319,4.9722 1021.63,4.9722C1053.07,4.9722 1080.46,8.76389 1103.76,16.375C1127.1,23.9722 1147.67,33.1388 1165.49,43.8889L1181.6,17.1527L1213.04,17.1527L1216.57,212.097L1184.35,212.097C1178.83,190.625 1172,169.458 1163.89,148.625C1155.75,127.792 1145.26,109.125 1132.4,92.625C1119.54,76.1111 1103.87,62.9444 1085.39,53.1111C1066.89,43.2917 1044.79,38.375 1019.08,38.375C991.014,38.375 965.958,44.0694 943.917,55.4861C921.889,66.8889 902.722,83.875 886.458,106.417C870.458,128.194 858.139,155.333 849.472,187.847C840.819,220.375 836.5,256.694 836.5,296.806C836.5,332.208 840.75,365.583 849.278,396.917C857.806,428.25 870.208,455.319 886.472,478.139C902.75,501.472 923.083,519.847 947.472,533.222C971.875,546.583 999.556,553.278 1030.51,553.278C1053.61,553.278 1074.67,549.736 1093.69,542.653C1112.71,535.583 1126.15,528.125 1134.04,520.25C1136.13,506.639 1137.25,492.875 1137.38,478.986C1137.5,465.097 1137.57,453.306 1137.57,443.611L1137.49,420.472C1136.78,403.222 1128.76,379.639 1092.42,381.556C1064.03,383.056 1044.5,384.236 1044.5,384.236L1044.25,352.75L1288.9,320.431L1288.9,351.458Z" style="fill:rgb(102,106,107);fill-rule:nonzero;"/>
        <path d="M1843.24,574.889L1611.74,574.889L1611.74,546.986C1618.01,546.458 1627.13,545.681 1639.04,544.625C1650.97,543.583 1659.17,542 1663.61,539.917C1671.47,536.764 1677.24,531.986 1680.9,525.569C1684.57,519.139 1686.42,510.819 1686.42,500.597L1686.42,302.111L1424.25,335.653L1424.25,496.278C1424.25,505.444 1425.75,513.181 1428.76,519.472C1431.78,525.764 1437.74,531.264 1446.65,535.986C1451.1,538.333 1459.03,540.694 1470.43,543.056C1481.82,545.417 1490.79,546.722 1497.35,546.986L1497.35,574.889L1265.83,574.889L1265.83,546.986C1272.12,546.458 1281.24,545.681 1293.15,544.625C1305.08,543.583 1313.26,542 1317.72,539.917C1325.58,536.764 1331.35,531.986 1335.01,525.569C1338.69,519.139 1340.53,510.819 1340.53,500.597L1340.53,98.1249C1340.53,89.7361 1338.82,82.0694 1335.42,75.125C1332,68.1805 1326.11,62.7361 1317.72,58.8055C1310.65,55.4166 1302.07,52.4028 1291.99,49.7777C1281.89,47.1528 1273.18,45.5833 1265.83,45.0555L1265.83,17.1527L1497.35,17.1527L1497.35,45.0555C1490.01,45.3333 1481.04,46.5 1470.43,48.5972C1459.82,50.6944 1451.89,52.6527 1446.65,54.4861C1437.74,57.6389 1431.78,62.875 1428.76,70.2222C1425.75,77.5555 1424.25,85.5417 1424.25,94.1806L1424.25,300.667L1686.42,267.125L1686.42,98.1249C1686.42,89.7361 1684.71,82.0694 1681.29,75.125C1677.89,68.1805 1672,62.7361 1663.61,58.8055C1656.54,55.4166 1647.96,52.4028 1637.87,49.7777C1627.78,47.1528 1619.07,45.5833 1611.74,45.0555L1611.74,17.1527L1843.24,17.1527L1843.24,45.0555C1835.9,45.3333 1826.92,46.5 1816.32,48.5972C1805.69,50.6944 1797.78,52.6527 1792.53,54.4861C1783.63,57.6389 1777.67,62.875 1774.65,70.2222C1771.64,77.5555 1770.13,85.5417 1770.13,94.1806L1770.13,496.278C1770.13,505.444 1771.64,513.181 1774.65,519.472C1777.67,525.764 1783.63,531.264 1792.53,535.986C1796.99,538.333 1804.92,540.694 1816.32,543.056C1827.71,545.417 1836.68,546.722 1843.24,546.986L1843.24,574.889Z" style="fill:rgb(237,29,39);fill-rule:nonzero;"/>
        <path d="M2242.64,463.917C2254.74,438.667 2262.56,410.708 2266.06,380.042C2269.54,349.375 2269.35,315.542 2265.46,278.528C2261.46,240.486 2254.06,205.958 2243.29,174.944C2232.53,143.917 2218.79,117.972 2202.11,97.0694C2185.46,76.4305 2165.67,61.0416 2142.71,50.9305C2119.79,40.8472 2094.4,37.2499 2066.51,40.1805C2035.25,43.4583 2009.42,53.4306 1989.01,70.0694C1968.64,86.6805 1952.81,107.736 1941.5,133.153C1930.89,157.444 1924.01,185.319 1920.83,216.736C1917.69,248.153 1917.89,280.819 1921.46,314.681C1925.4,352.208 1932.35,385.736 1942.31,415.25C1952.26,444.778 1965.75,470.486 1982.82,492.417C1999.31,513.861 2018.9,529.917 2041.64,540.569C2064.35,551.222 2090.57,554.986 2120.29,551.861C2148.18,548.931 2172.62,539.778 2193.67,524.389C2214.71,509 2231.04,488.847 2242.64,463.917ZM2259.57,64.5416C2286.74,87.5278 2309.14,116.306 2326.74,150.958C2344.36,185.597 2355.44,224.806 2360.06,268.583C2364.68,312.625 2361.85,353.375 2351.56,390.806C2341.25,428.25 2324.94,460.931 2302.58,488.847C2280.97,516.389 2254.85,538.639 2224.21,555.556C2193.6,572.472 2160.17,582.847 2123.94,586.653C2085.38,590.708 2048.97,587.208 2014.75,576.208C1980.51,565.167 1950.35,547.986 1924.17,524.667C1898.07,501.847 1876.4,473.097 1859.18,438.417C1841.97,403.722 1831.18,365.819 1826.86,324.625C1822.12,279.542 1824.93,238.597 1835.29,201.819C1845.65,165.028 1861.86,132.431 1883.92,104.028C1905.71,75.9167 1932.13,53.375 1963.17,36.4305C1994.17,19.4583 2027.4,9.11109 2062.83,5.37497C2099.6,1.52772 2134.97,4.79164 2169.01,15.1667C2203.03,25.5694 2233.21,42.0277 2259.57,64.5416Z" style="fill:rgb(133,21,24);fill-rule:nonzero;"/>
        <path d="M108.958,802.208C116.319,793.875 120.056,782.792 120.056,768.806C120.056,754.931 116.319,743.833 108.958,735.514C101.611,727.194 91.7222,723.097 79.3056,723.097C66.875,723.097 56.9861,727.194 49.6389,735.514C42.2778,743.833 38.5417,754.931 38.5417,768.806C38.5417,782.792 42.2778,793.875 49.6389,802.208C56.9861,810.528 66.875,814.625 79.3056,814.625C91.7222,814.625 101.611,810.528 108.958,802.208ZM59.0417,795.694C54.0972,789.181 51.6806,780.25 51.6806,768.806C51.6806,757.347 54.0972,748.417 59.0417,742.028C63.8611,735.639 70.6111,732.375 79.3056,732.375C87.9861,732.375 94.7361,735.639 99.5556,742.028C104.5,748.417 106.917,757.347 106.917,768.806C106.917,780.25 104.5,789.181 99.5556,795.694C94.7361,802.083 87.9861,805.333 79.3056,805.333C70.6111,805.333 63.8611,802.083 59.0417,795.694ZM72.7917,717.917L72.7917,707.778L62.6528,707.778L62.6528,717.917L72.7917,717.917ZM96.0556,717.917L96.0556,707.778L85.9306,707.778L85.9306,717.917L96.0556,717.917Z" style="fill:rgb(102,106,107);fill-rule:nonzero;"/>
        <path d="M153.681,813.903C160.556,813.903 166.222,812.097 170.694,808.472C175.153,804.861 177.319,800.278 177.319,794.722C177.319,790.264 176,786.528 173.347,783.625C170.806,780.611 166.347,777.847 159.958,775.194L154.417,772.778C148.736,770.486 145.972,767.472 145.972,763.972C145.972,761.569 146.931,759.514 148.986,758.069C151.028,756.625 153.681,755.903 157.069,755.903C160.917,755.903 165.986,756.861 172.5,758.792L172.5,749.139L170.083,748.667C164.778,747.694 160.444,747.208 156.819,747.208C149.944,747.208 144.639,748.778 140.667,752.042C136.681,755.167 134.75,759.514 134.75,765.181C134.75,772.903 139.694,778.931 149.708,783.028L156.458,785.917C162.611,788.569 165.75,791.833 165.75,795.694C165.75,798.458 164.667,800.75 162.486,802.569C160.194,804.375 157.542,805.222 154.167,805.222C148.5,805.222 141.986,803.292 134.389,799.556L134.389,810.167C141.986,812.694 148.375,813.903 153.681,813.903Z" style="fill:rgb(102,106,107);fill-rule:nonzero;"/>
        <path d="M225.778,804.5C223.597,804.972 221.667,805.222 220.111,805.222C212.875,805.222 209.25,801 209.25,792.681L209.25,757.222L226.014,757.222L226.014,748.542L209.25,748.542L209.25,735.875L197.681,736.958L197.681,748.542L189.722,748.542L189.722,757.222L197.681,757.222L197.681,794.722C197.681,800.75 199.361,805.458 202.625,808.833C206,812.208 210.583,813.903 216.486,813.903C219.139,813.903 222.153,813.417 225.778,812.458L225.778,804.5Z" style="fill:rgb(102,106,107);fill-rule:nonzero;"/>
        <path d="M288.236,801.111C281.25,803.889 275.208,805.222 270.389,805.222C257.25,805.222 249.764,797.625 248.083,782.306L288.486,782.306L288.597,778.806C288.597,768.681 286.431,760.833 282.208,755.292C277.986,749.861 271.958,747.097 264.236,747.097C256.042,747.097 249.403,750.222 244.097,756.375C238.917,762.528 236.264,770.486 236.264,780.25C236.264,790.139 239.278,798.222 245.194,804.5C251.097,810.764 258.819,813.903 268.222,813.903C273.764,813.903 280.514,812.694 288.236,810.403L288.236,801.111ZM263.639,755.778C272.444,755.778 276.903,761.681 276.903,773.625L248.681,773.625C249.653,761.681 254.708,755.778 263.639,755.778Z" style="fill:rgb(102,106,107);fill-rule:nonzero;"/>
        <path d="M319.125,812.458L319.125,770.361C324.069,761.681 330.222,757.347 337.569,757.347C339.139,757.347 340.833,757.708 342.875,758.306L342.875,747.458C341.556,747.333 340.347,747.208 339.139,747.208C330.458,747.208 323.708,751.681 319.125,760.597L319.125,748.542L307.542,748.542L307.542,812.458L319.125,812.458Z" style="fill:rgb(102,106,107);fill-rule:nonzero;"/>
        <path d="M367.5,812.458L367.5,770.361C372.444,761.681 378.597,757.347 385.958,757.347C387.528,757.347 389.208,757.708 391.264,758.306L391.264,747.458C389.931,747.333 388.722,747.208 387.528,747.208C378.833,747.208 372.083,751.681 367.5,760.597L367.5,748.542L355.931,748.542L355.931,812.458L367.5,812.458Z" style="fill:rgb(102,106,107);fill-rule:nonzero;"/>
        <path d="M451.208,801.111C444.222,803.889 438.194,805.222 433.361,805.222C420.222,805.222 412.75,797.625 411.056,782.306L451.458,782.306L451.569,778.806C451.569,768.681 449.403,760.833 445.181,755.292C440.958,749.861 434.931,747.097 427.222,747.097C419.014,747.097 412.389,750.222 407.083,756.375C401.889,762.528 399.236,770.486 399.236,780.25C399.236,790.139 402.25,798.222 408.167,804.5C414.069,810.764 421.792,813.903 431.194,813.903C436.75,813.903 443.5,812.694 451.208,810.403L451.208,801.111ZM426.611,755.778C435.417,755.778 439.875,761.681 439.875,773.625L411.667,773.625C412.625,761.681 417.694,755.778 426.611,755.778Z" style="fill:rgb(102,106,107);fill-rule:nonzero;"/>
        <path d="M482.097,812.458L482.097,748.542L470.528,748.542L470.528,812.458L482.097,812.458ZM482.097,736.847L482.097,725.264L470.528,725.264L470.528,736.847L482.097,736.847Z" style="fill:rgb(102,106,107);fill-rule:nonzero;"/>
        <path d="M548.792,800.514C543.25,803.292 537.694,804.611 532.514,804.611C526.486,804.611 521.667,802.444 518.042,797.986C514.306,793.514 512.5,787.736 512.5,780.611C512.5,773.139 514.306,767.236 517.806,762.764C521.417,758.306 526.125,756.139 532.153,756.139C536.25,756.139 541.556,757.097 548.069,759.028L548.069,749.264C541.917,747.931 536.375,747.208 531.306,747.208C521.306,747.208 513.458,750.111 507.792,755.903C502.125,761.681 499.347,769.764 499.347,780.139C499.347,789.903 502.25,797.986 507.917,804.375C513.583,810.764 520.694,813.903 529.375,813.903C534.806,813.903 541.319,812.819 548.792,810.528L548.792,800.514Z" style="fill:rgb(102,106,107);fill-rule:nonzero;"/>
        <path d="M576.792,812.458L576.792,771.097C583.069,761.806 589.819,757.222 596.931,757.222C600.194,757.222 602.486,758.181 603.931,760.236C605.25,762.292 605.972,765.667 605.972,770.361L605.972,812.458L617.556,812.458L617.556,766.625C617.556,760.722 615.861,756.014 612.611,752.514C609.347,749.028 604.889,747.208 599.347,747.208C590.417,747.208 582.944,751.681 576.792,760.597L576.792,719.472L565.222,719.472L565.222,812.458L576.792,812.458Z" style="fill:rgb(102,106,107);fill-rule:nonzero;"/>
        <path d="M650.667,812.458L650.667,748.542L639.097,748.542L639.097,812.458L650.667,812.458ZM650.667,736.847L650.667,725.264L639.097,725.264L639.097,736.847L650.667,736.847Z" style="fill:rgb(102,106,107);fill-rule:nonzero;"/>
        <path d="M689.986,813.903C696.861,813.903 702.528,812.097 706.986,808.472C711.458,804.861 713.625,800.278 713.625,794.722C713.625,790.264 712.292,786.528 709.639,783.625C707.111,780.611 702.653,777.847 696.264,775.194L690.708,772.778C685.042,770.486 682.278,767.472 682.278,763.972C682.278,761.569 683.236,759.514 685.292,758.069C687.333,756.625 689.986,755.903 693.361,755.903C697.222,755.903 702.292,756.861 708.806,758.792L708.806,749.139L706.389,748.667C701.083,747.694 696.736,747.208 693.125,747.208C686.25,747.208 680.944,748.778 676.972,752.042C672.986,755.167 671.056,759.514 671.056,765.181C671.056,772.903 676,778.931 686.014,783.028L692.764,785.917C698.917,788.569 702.042,791.833 702.042,795.694C702.042,798.458 700.958,800.75 698.792,802.569C696.5,804.375 693.847,805.222 690.472,805.222C684.806,805.222 678.292,803.292 670.694,799.556L670.694,810.167C678.292,812.694 684.681,813.903 689.986,813.903Z" style="fill:rgb(102,106,107);fill-rule:nonzero;"/>
        <path d="M777.875,800.514C772.319,803.292 766.778,804.611 761.597,804.611C755.556,804.611 750.736,802.444 747.125,797.986C743.389,793.514 741.569,787.736 741.569,780.611C741.569,773.139 743.389,767.236 746.875,762.764C750.5,758.306 755.194,756.139 761.236,756.139C765.333,756.139 770.639,757.097 777.153,759.028L777.153,749.264C771,747.931 765.444,747.208 760.389,747.208C750.375,747.208 742.542,750.111 736.875,755.903C731.208,761.681 728.431,769.764 728.431,780.139C728.431,789.903 731.319,797.986 736.986,804.375C742.653,810.764 749.778,813.903 758.458,813.903C763.889,813.903 770.389,812.819 777.875,810.528L777.875,800.514Z" style="fill:rgb(102,106,107);fill-rule:nonzero;"/>
        <path d="M805.875,812.458L805.875,771.097C812.139,761.806 818.903,757.222 826.014,757.222C829.264,757.222 831.556,758.181 833.014,760.236C834.333,762.292 835.056,765.667 835.056,770.361L835.056,812.458L846.639,812.458L846.639,766.625C846.639,760.722 844.944,756.014 841.694,752.514C838.431,749.028 833.972,747.208 828.431,747.208C819.5,747.208 812.028,751.681 805.875,760.597L805.875,719.472L794.292,719.472L794.292,812.458L805.875,812.458Z" style="fill:rgb(102,106,107);fill-rule:nonzero;"/>
        <path d="M915.083,801.111C908.083,803.889 902.056,805.222 897.236,805.222C884.097,805.222 876.611,797.625 874.931,782.306L915.319,782.306L915.444,778.806C915.444,768.681 913.278,760.833 909.056,755.292C904.833,749.861 898.806,747.097 891.083,747.097C882.889,747.097 876.25,750.222 870.944,756.375C865.764,762.528 863.111,770.486 863.111,780.25C863.111,790.139 866.125,798.222 872.028,804.5C877.944,810.764 885.653,813.903 895.069,813.903C900.611,813.903 907.361,812.694 915.083,810.403L915.083,801.111ZM890.486,755.778C899.292,755.778 903.75,761.681 903.75,773.625L875.528,773.625C876.5,761.681 881.556,755.778 890.486,755.778Z" style="fill:rgb(102,106,107);fill-rule:nonzero;"/>
        <path d="M1036.69,774.833L1024.28,774.833L1024.28,803.167C1019.46,804.611 1015.11,805.333 1011.01,805.333C1001,805.333 993.167,802.083 987.625,795.694C982.069,789.306 979.292,780.375 979.292,768.917C979.292,757.347 981.944,748.306 987.139,741.903C992.319,735.514 999.556,732.375 1008.96,732.375C1015.36,732.375 1024.64,734.431 1036.58,738.528L1036.58,727.069C1027.06,724.417 1017.89,723.097 1009.08,723.097C995.458,723.097 984.972,727.069 977.375,735.028C969.889,743.111 966.153,754.333 966.153,768.806C966.153,783.625 969.889,794.972 977.25,802.806C984.611,810.639 995.222,814.625 1009.08,814.625C1016.92,814.625 1026.21,813.056 1036.69,810.042L1036.69,774.833Z" style="fill:rgb(102,106,107);fill-rule:nonzero;"/>
        <path d="M1104.67,801.111C1097.68,803.889 1091.65,805.222 1086.82,805.222C1073.68,805.222 1066.21,797.625 1064.51,782.306L1104.92,782.306L1105.03,778.806C1105.03,768.681 1102.86,760.833 1098.64,755.292C1094.42,749.861 1088.39,747.097 1080.67,747.097C1072.47,747.097 1065.83,750.222 1060.53,756.375C1055.35,762.528 1052.69,770.486 1052.69,780.25C1052.69,790.139 1055.71,798.222 1061.63,804.5C1067.53,810.764 1075.25,813.903 1084.65,813.903C1090.19,813.903 1096.96,812.694 1104.67,810.403L1104.67,801.111ZM1080.07,755.778C1088.88,755.778 1093.33,761.681 1093.33,773.625L1065.11,773.625C1066.08,761.681 1071.14,755.778 1080.07,755.778Z" style="fill:rgb(102,106,107);fill-rule:nonzero;"/>
        <path d="M1140.99,813.903C1147.86,813.903 1153.53,812.097 1157.99,808.472C1162.44,804.861 1164.63,800.278 1164.63,794.722C1164.63,790.264 1163.29,786.528 1160.64,783.625C1158.11,780.611 1153.64,777.847 1147.25,775.194L1141.71,772.778C1136.04,770.486 1133.26,767.472 1133.26,763.972C1133.26,761.569 1134.24,759.514 1136.28,758.069C1138.33,756.625 1140.99,755.903 1144.36,755.903C1148.22,755.903 1153.28,756.861 1159.79,758.792L1159.79,749.139L1157.39,748.667C1152.08,747.694 1147.74,747.208 1144.11,747.208C1137.25,747.208 1131.94,748.778 1127.96,752.042C1123.99,755.167 1122.06,759.514 1122.06,765.181C1122.06,772.903 1127,778.931 1137,783.028L1143.75,785.917C1149.9,788.569 1153.04,791.833 1153.04,795.694C1153.04,798.458 1151.96,800.75 1149.79,802.569C1147.5,804.375 1144.85,805.222 1141.46,805.222C1135.79,805.222 1129.29,803.292 1121.69,799.556L1121.69,810.167C1129.29,812.694 1135.68,813.903 1140.99,813.903Z" style="fill:rgb(102,106,107);fill-rule:nonzero;"/>
        <path d="M1231.4,801.111C1224.4,803.889 1218.38,805.222 1213.56,805.222C1200.4,805.222 1192.93,797.625 1191.24,782.306L1231.64,782.306L1231.76,778.806C1231.76,768.681 1229.58,760.833 1225.36,755.292C1221.15,749.861 1215.11,747.097 1207.4,747.097C1199.19,747.097 1192.57,750.222 1187.26,756.375C1182.07,762.528 1179.42,770.486 1179.42,780.25C1179.42,790.139 1182.44,798.222 1188.35,804.5C1194.25,810.764 1201.97,813.903 1211.38,813.903C1216.93,813.903 1223.68,812.694 1231.4,810.403L1231.4,801.111ZM1206.79,755.778C1215.6,755.778 1220.06,761.681 1220.06,773.625L1191.85,773.625C1192.81,761.681 1197.88,755.778 1206.79,755.778Z" style="fill:rgb(102,106,107);fill-rule:nonzero;"/>
        <rect x="1250.71" y="719.472" width="11.5695" height="92.9861" style="fill:rgb(102,106,107);fill-rule:nonzero;"/>
        <rect x="1284.6" y="719.472" width="11.5833" height="92.9861" style="fill:rgb(102,106,107);fill-rule:nonzero;"/>
        <path d="M1335.5,813.903C1342.36,813.903 1348.04,812.097 1352.5,808.472C1356.96,804.861 1359.13,800.278 1359.13,794.722C1359.13,790.264 1357.81,786.528 1355.15,783.625C1352.61,780.611 1348.15,777.847 1341.76,775.194L1336.22,772.778C1330.56,770.486 1327.78,767.472 1327.78,763.972C1327.78,761.569 1328.74,759.514 1330.79,758.069C1332.85,756.625 1335.5,755.903 1338.88,755.903C1342.72,755.903 1347.79,756.861 1354.31,758.792L1354.31,749.139L1351.89,748.667C1346.58,747.694 1342.25,747.208 1338.63,747.208C1331.75,747.208 1326.44,748.778 1322.47,752.042C1318.49,755.167 1316.56,759.514 1316.56,765.181C1316.56,772.903 1321.5,778.931 1331.51,783.028L1338.26,785.917C1344.42,788.569 1347.56,791.833 1347.56,795.694C1347.56,798.458 1346.47,800.75 1344.29,802.569C1342,804.375 1339.35,805.222 1335.97,805.222C1330.31,805.222 1323.79,803.292 1316.19,799.556L1316.19,810.167C1323.79,812.694 1330.19,813.903 1335.5,813.903Z" style="fill:rgb(102,106,107);fill-rule:nonzero;"/>
        <path d="M1423.38,800.514C1417.83,803.292 1412.28,804.611 1407.1,804.611C1401.07,804.611 1396.25,802.444 1392.63,797.986C1388.89,793.514 1387.08,787.736 1387.08,780.611C1387.08,773.139 1388.89,767.236 1392.39,762.764C1396,758.306 1400.71,756.139 1406.74,756.139C1410.83,756.139 1416.14,757.097 1422.65,759.028L1422.65,749.264C1416.5,747.931 1410.96,747.208 1405.89,747.208C1395.88,747.208 1388.04,750.111 1382.38,755.903C1376.71,761.681 1373.93,769.764 1373.93,780.139C1373.93,789.903 1376.83,797.986 1382.5,804.375C1388.17,810.764 1395.28,813.903 1403.96,813.903C1409.39,813.903 1415.9,812.819 1423.38,810.528L1423.38,800.514Z" style="fill:rgb(102,106,107);fill-rule:nonzero;"/>
        <path d="M1451.38,812.458L1451.38,771.097C1457.65,761.806 1464.4,757.222 1471.51,757.222C1474.78,757.222 1477.07,758.181 1478.51,760.236C1479.83,762.292 1480.56,765.667 1480.56,770.361L1480.56,812.458L1492.14,812.458L1492.14,766.625C1492.14,760.722 1490.44,756.014 1487.19,752.514C1483.94,749.028 1479.47,747.208 1473.93,747.208C1465,747.208 1457.53,751.681 1451.38,760.597L1451.38,719.472L1439.81,719.472L1439.81,812.458L1451.38,812.458Z" style="fill:rgb(102,106,107);fill-rule:nonzero;"/>
        <path d="M1556.97,813.903C1560.11,813.903 1563,813.292 1565.65,811.972L1564.81,805.583C1563.85,805.694 1563.12,805.819 1562.64,805.819C1558.54,805.819 1556.49,802.569 1556.49,795.931L1556.49,766.986C1556.49,760.236 1554.79,755.292 1551.42,752.042C1548.04,748.778 1542.86,747.208 1535.75,747.208C1528.88,747.208 1521.51,748.778 1513.68,752.042L1513.68,761.569C1520.79,757.819 1527.31,755.903 1533.33,755.903C1541.06,755.903 1544.92,759.639 1544.92,766.986L1544.92,774.708L1542.26,774.708C1531.17,774.708 1522.85,776.639 1516.93,780.375C1511.03,784.111 1508.13,789.417 1508.13,796.417C1508.13,801.472 1509.82,805.583 1513.32,808.958C1516.82,812.208 1521.28,813.903 1526.58,813.903C1532.97,813.903 1539.72,810.764 1546.6,804.375C1548.04,810.764 1551.54,813.903 1556.97,813.903ZM1529.83,804.375C1527.07,804.375 1524.65,803.403 1522.6,801.472C1520.67,799.556 1519.71,797.264 1519.71,794.486C1519.71,790.5 1521.64,787.375 1525.61,785.083C1529.6,782.667 1534.78,781.458 1541.17,781.458L1544.92,781.583L1544.92,797.986C1539.72,802.208 1534.67,804.375 1529.83,804.375Z" style="fill:rgb(102,106,107);fill-rule:nonzero;"/>
        <path d="M1593.06,812.458L1593.06,757.222L1609.1,757.222L1609.1,748.542L1593.06,748.542L1593.06,739.611C1593.06,734.667 1593.78,731.292 1595.1,729.486C1596.56,727.681 1599.21,726.708 1602.94,726.708C1606.19,726.708 1610.29,727.556 1615.6,729.25L1615.6,719.958C1610.67,718.639 1606.19,718.028 1602.33,718.028C1588.47,718.028 1581.47,725.625 1581.47,740.819L1581.47,748.542L1572.43,748.542L1572.43,757.222L1581.47,757.222L1581.47,812.458L1593.06,812.458Z" style="fill:rgb(102,106,107);fill-rule:nonzero;"/>
        <path d="M1651.26,804.5C1649.08,804.972 1647.17,805.222 1645.6,805.222C1638.36,805.222 1634.74,801 1634.74,792.681L1634.74,757.222L1651.5,757.222L1651.5,748.542L1634.74,748.542L1634.74,735.875L1623.17,736.958L1623.17,748.542L1615.21,748.542L1615.21,757.222L1623.17,757.222L1623.17,794.722C1623.17,800.75 1624.85,805.458 1628.11,808.833C1631.49,812.208 1636.07,813.903 1641.97,813.903C1644.63,813.903 1647.64,813.417 1651.26,812.458L1651.26,804.5Z" style="fill:rgb(102,106,107);fill-rule:nonzero;"/>
        <path d="M1717.76,812.458L1717.76,757.222L1733.79,757.222L1733.79,748.542L1717.76,748.542L1717.76,739.611C1717.76,734.667 1718.49,731.292 1719.81,729.486C1721.25,727.681 1723.9,726.708 1727.64,726.708C1730.9,726.708 1735,727.556 1740.31,729.25L1740.31,719.958C1735.36,718.639 1730.9,718.028 1727.04,718.028C1713.18,718.028 1706.18,725.625 1706.18,740.819L1706.18,748.542L1697.14,748.542L1697.14,757.222L1706.18,757.222L1706.18,812.458L1717.76,812.458Z" style="fill:rgb(102,106,107);fill-rule:nonzero;"/>
        <path d="M1799,812.458L1799,748.542L1787.42,748.542L1787.42,789.903C1781.15,799.194 1774.39,803.889 1767.28,803.889C1764.03,803.889 1761.74,802.931 1760.29,800.875C1758.96,798.819 1758.24,795.444 1758.24,790.625L1758.24,748.542L1746.67,748.542L1746.67,794.486C1746.67,800.389 1748.35,805.097 1751.61,808.597C1754.86,812.097 1759.32,813.903 1764.99,813.903C1773.79,813.903 1781.26,809.444 1787.42,800.389L1787.42,812.458L1799,812.458ZM1766.32,736.958L1766.32,726.833L1756.18,726.833L1756.18,736.958L1766.32,736.958ZM1789.58,736.958L1789.58,726.833L1779.46,726.833L1779.46,736.958L1789.58,736.958Z" style="fill:rgb(102,106,107);fill-rule:nonzero;"/>
        <path d="M1832.83,812.458L1832.83,770.361C1837.78,761.681 1843.93,757.347 1851.29,757.347C1852.85,757.347 1854.54,757.708 1856.6,758.306L1856.6,747.458C1855.26,747.333 1854.06,747.208 1852.85,747.208C1844.17,747.208 1837.42,751.681 1832.83,760.597L1832.83,748.542L1821.26,748.542L1821.26,812.458L1832.83,812.458Z" style="fill:rgb(102,106,107);fill-rule:nonzero;"/>
        <path d="M56.2222,963.194L56.2222,921.736L97.9167,921.736L97.9167,963.194L110.431,963.194L110.431,875.306L97.9167,875.306L97.9167,912.375L56.2222,912.375L56.2222,875.306L43.6944,875.306L43.6944,963.194L56.2222,963.194Z" style="fill:rgb(102,106,107);fill-rule:nonzero;"/>
        <path d="M176.431,964.653C179.583,964.653 182.5,964.042 185.181,962.708L184.319,956.264C183.347,956.389 182.625,956.5 182.139,956.5C178,956.5 175.944,953.222 175.944,946.542L175.944,917.361C175.944,910.556 174.236,905.569 170.833,902.292C167.431,899 162.208,897.431 155.028,897.431C148.097,897.431 140.681,899 132.778,902.292L132.778,911.889C139.958,908.125 146.514,906.181 152.597,906.181C160.375,906.181 164.264,909.944 164.264,917.361L164.264,925.139L161.597,925.139C150.417,925.139 142.028,927.083 136.069,930.861C130.111,934.625 127.194,939.972 127.194,947.028C127.194,952.125 128.889,956.264 132.417,959.667C135.944,962.944 140.444,964.653 145.792,964.653C152.236,964.653 159.042,961.486 165.972,955.042C167.431,961.486 170.958,964.653 176.431,964.653ZM149.069,955.042C146.278,955.042 143.847,954.069 141.778,952.125C139.833,950.181 138.861,947.875 138.861,945.083C138.861,941.069 140.806,937.903 144.819,935.597C148.833,933.167 154.056,931.944 160.5,931.944L164.264,932.069L164.264,948.597C159.042,952.861 153.931,955.042 149.069,955.042ZM148.222,887.097L148.222,876.875L138.014,876.875L138.014,887.097L148.222,887.097ZM171.681,887.097L171.681,876.875L161.472,876.875L161.472,887.097L171.681,887.097Z" style="fill:rgb(102,106,107);fill-rule:nonzero;"/>
        <path d="M210.986,963.194L210.986,920.042C217.667,911.403 223.986,907.153 229.944,907.153C235.903,907.153 238.819,910.792 238.819,918.208L238.819,963.194L250.486,963.194L250.486,920.153C257.167,911.528 263.5,907.278 269.569,907.278C275.403,907.278 278.319,910.917 278.319,918.333L278.319,963.194L290,963.194L290,916.389C290,910.306 288.417,905.694 285.25,902.292C282.097,899 277.722,897.306 272.125,897.306C263.25,897.306 256.083,901.806 250.486,910.917C247.333,901.917 241.486,897.431 232.861,897.431C223.986,897.431 216.694,901.917 210.986,910.917L210.986,898.764L199.306,898.764L199.306,963.194L210.986,963.194Z" style="fill:rgb(102,106,107);fill-rule:nonzero;"/>
        <path d="M355.833,964.653C359,964.653 361.917,964.042 364.583,962.708L363.736,956.264C362.764,956.389 362.028,956.5 361.542,956.5C357.417,956.5 355.347,953.222 355.347,946.542L355.347,917.361C355.347,910.556 353.639,905.569 350.236,902.292C346.833,899 341.611,897.431 334.444,897.431C327.514,897.431 320.097,899 312.194,902.292L312.194,911.889C319.361,908.125 325.931,906.181 332,906.181C339.792,906.181 343.681,909.944 343.681,917.361L343.681,925.139L341,925.139C329.819,925.139 321.431,927.083 315.472,930.861C309.514,934.625 306.597,939.972 306.597,947.028C306.597,952.125 308.306,956.264 311.833,959.667C315.347,962.944 319.847,964.653 325.194,964.653C331.639,964.653 338.444,961.486 345.375,955.042C346.833,961.486 350.361,964.653 355.833,964.653ZM328.486,955.042C325.681,955.042 323.25,954.069 321.194,952.125C319.236,950.181 318.264,947.875 318.264,945.083C318.264,941.069 320.222,937.903 324.222,935.597C328.236,933.167 333.472,931.944 339.903,931.944L343.681,932.069L343.681,948.597C338.444,952.861 333.347,955.042 328.486,955.042Z" style="fill:rgb(102,106,107);fill-rule:nonzero;"/>
        <path d="M407.528,955.167C405.333,955.653 403.389,955.903 401.819,955.903C394.514,955.903 390.875,951.639 390.875,943.25L390.875,907.514L407.764,907.514L407.764,898.764L390.875,898.764L390.875,886L379.208,887.097L379.208,898.764L371.181,898.764L371.181,907.514L379.208,907.514L379.208,945.319C379.208,951.403 380.903,956.139 384.181,959.542C387.597,962.944 392.208,964.653 398.167,964.653C400.847,964.653 403.875,964.167 407.528,963.194L407.528,955.167Z" style="fill:rgb(102,106,107);fill-rule:nonzero;"/>
        <path d="M471.708,955.528C477.181,949.569 479.986,941.306 479.986,930.972C479.986,920.639 477.181,912.5 471.708,906.417C466.125,900.458 458.708,897.431 449.222,897.431C439.736,897.431 432.333,900.458 426.736,906.417C421.264,912.5 418.472,920.639 418.472,930.972C418.472,941.306 421.264,949.569 426.736,955.528C432.333,961.611 439.736,964.653 449.222,964.653C458.708,964.653 466.125,961.611 471.708,955.528ZM435.736,949.333C432.569,945.083 430.986,938.875 430.986,930.972C430.986,923.069 432.569,917 435.736,912.625C438.889,908.361 443.389,906.181 449.222,906.181C454.944,906.181 459.431,908.361 462.722,912.625C465.875,917 467.458,923.069 467.458,930.972C467.458,938.875 465.875,945.083 462.722,949.333C459.431,953.708 454.944,955.903 449.222,955.903C443.389,955.903 438.889,953.708 435.736,949.333Z" style="fill:rgb(102,106,107);fill-rule:nonzero;"/>
        <rect x="497.639" y="869.472" width="11.6667" height="93.7222" style="fill:rgb(102,106,107);fill-rule:nonzero;"/>
        <path d="M580.306,955.528C585.778,949.569 588.569,941.306 588.569,930.972C588.569,920.639 585.778,912.5 580.306,906.417C574.722,900.458 567.306,897.431 557.819,897.431C548.333,897.431 540.917,900.458 535.333,906.417C529.861,912.5 527.069,920.639 527.069,930.972C527.069,941.306 529.861,949.569 535.333,955.528C540.917,961.611 548.333,964.653 557.819,964.653C567.306,964.653 574.722,961.611 580.306,955.528ZM544.333,949.333C541.167,945.083 539.583,938.875 539.583,930.972C539.583,923.069 541.167,917 544.333,912.625C547.486,908.361 551.986,906.181 557.819,906.181C563.528,906.181 568.028,908.361 571.319,912.625C574.472,917 576.056,923.069 576.056,930.972C576.056,938.875 574.472,945.083 571.319,949.333C568.028,953.708 563.528,955.903 557.819,955.903C551.986,955.903 547.486,953.708 544.333,949.333Z" style="fill:rgb(102,106,107);fill-rule:nonzero;"/>
        <path d="M627.986,987.986C638.806,987.986 646.708,985.319 651.819,979.847C654.736,976.806 656.681,972.792 657.778,967.931C658.875,963.194 659.361,955.653 659.361,945.569L659.361,898.764L647.681,898.764L647.681,906.181C642.458,900.347 636.264,897.431 629.083,897.431C620.819,897.431 614.139,900.458 608.903,906.667C603.681,912.861 601.125,920.764 601.125,930.611C601.125,940.208 603.431,947.75 607.931,953.347C612.556,958.931 618.75,961.736 626.528,961.736C631.153,961.736 635.292,960.514 639.056,958.208C642.819,955.778 645.625,952.486 647.681,948.236L647.681,958.333C647.681,972.306 641.125,979.236 627.986,979.236C621.306,979.236 614.625,977.653 607.819,974.5L606.472,984.583C613.403,986.889 620.583,987.986 627.986,987.986ZM628.597,951.514C618.639,951.514 613.653,944.472 613.653,930.486C613.653,922.958 615.222,917 618.264,912.625C621.306,908.361 625.444,906.181 630.917,906.181C636.986,906.181 642.583,908.847 647.681,914.194L647.681,940.944C641.736,948 635.292,951.514 628.597,951.514Z" style="fill:rgb(102,106,107);fill-rule:nonzero;"/>
        <path d="M693.097,963.194L693.097,898.764L681.417,898.764L681.417,963.194L693.097,963.194ZM693.097,886.972L693.097,875.306L681.417,875.306L681.417,886.972L693.097,886.972Z" style="fill:rgb(102,106,107);fill-rule:nonzero;"/>
        <path d="M763.25,951.764C756.194,954.556 750.111,955.903 745.25,955.903C732,955.903 724.472,948.236 722.764,932.806L763.486,932.806L763.611,929.278C763.611,919.069 761.417,911.167 757.167,905.569C752.917,900.097 746.833,897.306 739.056,897.306C730.792,897.306 724.097,900.458 718.75,906.667C713.528,912.861 710.847,920.889 710.847,930.736C710.847,940.694 713.889,948.847 719.847,955.167C725.806,961.486 733.583,964.653 743.069,964.653C748.653,964.653 755.458,963.431 763.25,961.125L763.25,951.764ZM738.444,906.056C747.319,906.056 751.819,912.014 751.819,924.042L723.375,924.042C724.347,912.014 729.444,906.056 738.444,906.056Z" style="fill:rgb(102,106,107);fill-rule:nonzero;"/>
        <path d="M888.764,963.194C884.264,958.931 880.125,954.556 876.597,950.056C884.389,940.694 888.278,929.514 888.278,916.514L876.597,916.514L876.597,920.764C876.597,930.375 874.903,937.778 871.25,943.014C863.347,934.014 856.542,924.292 850.583,913.833C863.597,907.278 870.042,899.611 870.042,890.861C870.042,885.75 868.222,881.5 864.444,878.097C860.806,874.819 856.056,873.111 850.347,873.111C844.389,873.111 839.403,874.931 835.278,878.458C831.139,882.111 829.069,886.486 829.069,891.583C829.069,896.333 831.014,902.292 835.028,909.458C820.806,914.319 813.639,923.556 813.639,937.056C813.639,945.319 816.556,952.125 822.514,957.361C828.347,962.708 836,965.375 845.125,965.375C853.75,965.375 861.292,962.944 867.847,957.958L872.111,963.194L888.764,963.194ZM847.069,956.625C840.986,956.625 835.875,954.444 831.625,950.056C827.375,945.681 825.306,940.458 825.306,934.264C825.306,925.986 829.931,920.153 839.042,916.514C846.458,929.403 854.361,940.944 862.75,951.153C857.764,954.806 852.528,956.625 847.069,956.625ZM840.736,891.097C840.736,888.306 841.597,886.125 843.181,884.417C844.875,882.722 847.069,881.861 849.861,881.861C852.653,881.861 854.847,882.722 856.542,884.417C858.25,886 859.097,888.181 859.097,890.986C859.097,897.431 854.847,902.528 846.333,906.417C842.569,900.222 840.736,895.111 840.736,891.097Z" style="fill:rgb(102,106,107);fill-rule:nonzero;"/>
        <path d="M953.264,963.194L953.264,891.583L976.736,957.361L988.764,957.361L1012.96,891.708L1012.96,963.194L1024.63,963.194L1024.63,875.306L1009.19,875.306L984.153,943.375L959.833,875.306L942.569,875.306L942.569,963.194L953.264,963.194Z" style="fill:rgb(102,106,107);fill-rule:nonzero;"/>
        <path d="M1094.32,951.764C1087.28,954.556 1081.19,955.903 1076.33,955.903C1063.08,955.903 1055.54,948.236 1053.85,932.806L1094.57,932.806L1094.69,929.278C1094.69,919.069 1092.5,911.167 1088.25,905.569C1083.99,900.097 1077.92,897.306 1070.14,897.306C1061.86,897.306 1055.18,900.458 1049.83,906.667C1044.6,912.861 1041.93,920.889 1041.93,930.736C1041.93,940.694 1044.97,948.847 1050.93,955.167C1056.88,961.486 1064.67,964.653 1074.14,964.653C1079.74,964.653 1086.54,963.431 1094.32,961.125L1094.32,951.764ZM1069.53,906.056C1078.4,906.056 1082.9,912.014 1082.9,924.042L1054.44,924.042C1055.42,912.014 1060.53,906.056 1069.53,906.056Z" style="fill:rgb(102,106,107);fill-rule:nonzero;"/>
        <path d="M1167.28,963.194L1167.28,869.472L1155.61,869.472L1155.61,906.181C1150.62,900.347 1144.18,897.431 1136.53,897.431C1128.37,897.431 1121.69,900.708 1116.58,907.153C1111.6,913.708 1109.04,922.347 1109.04,933.042C1109.04,942.764 1111.24,950.542 1115.74,956.139C1120.24,961.847 1126.31,964.653 1134.08,964.653C1143.69,964.653 1150.86,960.153 1155.61,951.028L1155.61,963.194L1167.28,963.194ZM1155.61,943.861C1149.4,950.917 1143.08,954.444 1136.53,954.444C1126.56,954.444 1121.57,946.903 1121.57,931.833C1121.57,923.681 1123.03,917.361 1125.94,912.861C1128.86,908.361 1133,906.181 1138.35,906.181C1143.82,906.181 1149.53,908.847 1155.61,914.194L1155.61,943.861Z" style="fill:rgb(102,106,107);fill-rule:nonzero;"/>
        <path d="M1201.72,963.194L1201.72,898.764L1190.06,898.764L1190.06,963.194L1201.72,963.194ZM1201.72,886.972L1201.72,875.306L1190.06,875.306L1190.06,886.972L1201.72,886.972Z" style="fill:rgb(102,106,107);fill-rule:nonzero;"/>
        <path d="M1275.28,963.194L1275.28,954.444L1234.56,954.444L1274.56,907.514L1274.56,898.764L1222.04,898.764L1222.04,907.514L1260.21,907.514L1220.21,954.444L1220.21,963.194L1275.28,963.194Z" style="fill:rgb(102,106,107);fill-rule:nonzero;"/>
        <path d="M1305.33,963.194L1305.33,898.764L1293.67,898.764L1293.67,963.194L1305.33,963.194ZM1305.33,886.972L1305.33,875.306L1293.67,875.306L1293.67,886.972L1305.33,886.972Z" style="fill:rgb(102,106,107);fill-rule:nonzero;"/>
        <path d="M1339.86,963.194L1339.86,921.5C1346.18,912.139 1353,907.514 1360.17,907.514C1363.44,907.514 1365.76,908.486 1367.22,910.556C1368.56,912.625 1369.28,916.028 1369.28,920.764L1369.28,963.194L1380.96,963.194L1380.96,917C1380.96,911.042 1379.25,906.306 1375.97,902.778C1372.69,899.25 1368.19,897.431 1362.6,897.431C1353.6,897.431 1346.07,901.917 1339.86,910.917L1339.86,898.764L1328.19,898.764L1328.19,963.194L1339.86,963.194Z" style="fill:rgb(102,106,107);fill-rule:nonzero;"/>
        <path d="M1414.69,963.194L1414.69,898.764L1403.03,898.764L1403.03,963.194L1414.69,963.194ZM1414.69,886.972L1414.69,875.306L1403.03,875.306L1403.03,886.972L1414.69,886.972Z" style="fill:rgb(102,106,107);fill-rule:nonzero;"/>
        <path d="M1454.71,964.653C1461.64,964.653 1467.35,962.819 1471.85,959.181C1476.35,955.528 1478.53,950.917 1478.53,945.319C1478.53,940.819 1477.19,937.056 1474.51,934.139C1471.96,931.097 1467.47,928.306 1461.03,925.625L1455.43,923.194C1449.72,920.889 1446.92,917.847 1446.92,914.319C1446.92,911.889 1447.89,909.819 1449.96,908.361C1452.03,906.903 1454.71,906.181 1458.11,906.181C1462,906.181 1467.1,907.153 1473.67,909.097L1473.67,899.375L1471.24,898.889C1465.89,897.917 1461.51,897.431 1457.86,897.431C1450.93,897.431 1445.58,899 1441.57,902.292C1437.57,905.444 1435.61,909.819 1435.61,915.542C1435.61,923.319 1440.6,929.403 1450.69,933.528L1457.5,936.444C1463.69,939.125 1466.86,942.403 1466.86,946.292C1466.86,949.083 1465.76,951.403 1463.58,953.222C1461.26,955.042 1458.6,955.903 1455.19,955.903C1449.47,955.903 1442.92,953.958 1435.25,950.181L1435.25,960.875C1442.92,963.431 1449.36,964.653 1454.71,964.653Z" style="fill:rgb(102,106,107);fill-rule:nonzero;"/>
        <path d="M1543.65,951.153C1538.07,953.958 1532.47,955.292 1527.25,955.292C1521.17,955.292 1516.31,953.097 1512.67,948.597C1508.89,944.111 1507.07,938.264 1507.07,931.097C1507.07,923.556 1508.89,917.611 1512.42,913.111C1516.07,908.611 1520.81,906.417 1526.89,906.417C1531.01,906.417 1536.36,907.389 1542.93,909.333L1542.93,899.486C1536.74,898.153 1531.14,897.431 1526.03,897.431C1515.94,897.431 1508.04,900.347 1502.33,906.181C1496.61,912.014 1493.82,920.153 1493.82,930.611C1493.82,940.458 1496.74,948.597 1502.44,955.042C1508.17,961.486 1515.33,964.653 1524.08,964.653C1529.56,964.653 1536.13,963.556 1543.65,961.25L1543.65,951.153Z" style="fill:rgb(102,106,107);fill-rule:nonzero;"/>
        <path d="M1572.25,963.194L1572.25,921.5C1578.57,912.139 1585.38,907.514 1592.56,907.514C1595.83,907.514 1598.14,908.486 1599.6,910.556C1600.94,912.625 1601.67,916.028 1601.67,920.764L1601.67,963.194L1613.33,963.194L1613.33,917C1613.33,911.042 1611.64,906.306 1608.36,902.778C1605.07,899.25 1600.57,897.431 1594.99,897.431C1585.99,897.431 1578.44,901.917 1572.25,910.917L1572.25,869.472L1560.58,869.472L1560.58,963.194L1572.25,963.194Z" style="fill:rgb(102,106,107);fill-rule:nonzero;"/>
        <path d="M1682.71,951.764C1675.65,954.556 1669.57,955.903 1664.71,955.903C1651.46,955.903 1643.93,948.236 1642.22,932.806L1682.94,932.806L1683.07,929.278C1683.07,919.069 1680.88,911.167 1676.63,905.569C1672.37,900.097 1666.29,897.306 1658.51,897.306C1650.25,897.306 1643.56,900.458 1638.21,906.667C1632.99,912.861 1630.31,920.889 1630.31,930.736C1630.31,940.694 1633.35,948.847 1639.31,955.167C1645.26,961.486 1653.04,964.653 1662.53,964.653C1668.11,964.653 1674.92,963.431 1682.71,961.125L1682.71,951.764ZM1657.9,906.056C1666.78,906.056 1671.28,912.014 1671.28,924.042L1642.83,924.042C1643.81,912.014 1648.9,906.056 1657.9,906.056Z" style="fill:rgb(102,106,107);fill-rule:nonzero;"/>
        <path d="M1805.92,952.861C1813.33,944.472 1817.1,933.292 1817.1,919.181C1817.1,905.208 1813.33,894.028 1805.92,885.639C1798.5,877.25 1788.53,873.111 1776.01,873.111C1763.49,873.111 1753.51,877.25 1746.1,885.639C1738.68,894.028 1734.92,905.208 1734.92,919.181C1734.92,933.292 1738.68,944.472 1746.1,952.861C1753.51,961.25 1763.49,965.375 1776.01,965.375C1788.53,965.375 1798.5,961.25 1805.92,952.861ZM1755.58,946.292C1750.6,939.722 1748.17,930.736 1748.17,919.181C1748.17,907.639 1750.6,898.639 1755.58,892.194C1760.44,885.75 1767.25,882.472 1776.01,882.472C1784.76,882.472 1791.57,885.75 1796.43,892.194C1801.42,898.639 1803.85,907.639 1803.85,919.181C1803.85,930.736 1801.42,939.722 1796.43,946.292C1791.57,952.736 1784.76,956.014 1776.01,956.014C1767.25,956.014 1760.44,952.736 1755.58,946.292Z" style="fill:rgb(102,106,107);fill-rule:nonzero;"/>
        <path d="M1845.89,963.194L1845.89,921.5C1852.21,912.139 1859.01,907.514 1866.19,907.514C1869.47,907.514 1871.78,908.486 1873.24,910.556C1874.57,912.625 1875.31,916.028 1875.31,920.764L1875.31,963.194L1886.97,963.194L1886.97,917C1886.97,911.042 1885.28,906.306 1881.99,902.778C1878.71,899.25 1874.21,897.431 1868.63,897.431C1859.62,897.431 1852.08,901.917 1845.89,910.917L1845.89,898.764L1834.22,898.764L1834.22,963.194L1845.89,963.194Z" style="fill:rgb(102,106,107);fill-rule:nonzero;"/>
        <path d="M1920.72,963.194L1920.72,930.125L1951.11,963.194L1966.18,963.194L1934.58,928.792L1960.71,898.764L1948.07,898.764L1920.72,930L1920.72,869.472L1909.06,869.472L1909.06,963.194L1920.72,963.194Z" style="fill:rgb(102,106,107);fill-rule:nonzero;"/>
        <path d="M2027.64,955.528C2033.1,949.569 2035.9,941.306 2035.9,930.972C2035.9,920.639 2033.1,912.5 2027.64,906.417C2022.04,900.458 2014.63,897.431 2005.14,897.431C1995.67,897.431 1988.25,900.458 1982.65,906.417C1977.18,912.5 1974.39,920.639 1974.39,930.972C1974.39,941.306 1977.18,949.569 1982.65,955.528C1988.25,961.611 1995.67,964.653 2005.14,964.653C2014.63,964.653 2022.04,961.611 2027.64,955.528ZM1991.65,949.333C1988.49,945.083 1986.9,938.875 1986.9,930.972C1986.9,923.069 1988.49,917 1991.65,912.625C1994.81,908.361 1999.31,906.181 2005.14,906.181C2010.86,906.181 2015.36,908.361 2018.64,912.625C2021.79,917 2023.38,923.069 2023.38,930.972C2023.38,938.875 2021.79,945.083 2018.64,949.333C2015.36,953.708 2010.86,955.903 2005.14,955.903C1999.31,955.903 1994.81,953.708 1991.65,949.333Z" style="fill:rgb(102,106,107);fill-rule:nonzero;"/>
        <rect x="2053.56" y="869.472" width="11.6667" height="93.7222" style="fill:rgb(102,106,107);fill-rule:nonzero;"/>
        <path d="M2136.22,955.528C2141.69,949.569 2144.49,941.306 2144.49,930.972C2144.49,920.639 2141.69,912.5 2136.22,906.417C2130.64,900.458 2123.22,897.431 2113.74,897.431C2104.25,897.431 2096.83,900.458 2091.25,906.417C2085.78,912.5 2082.99,920.639 2082.99,930.972C2082.99,941.306 2085.78,949.569 2091.25,955.528C2096.83,961.611 2104.25,964.653 2113.74,964.653C2123.22,964.653 2130.64,961.611 2136.22,955.528ZM2100.25,949.333C2097.08,945.083 2095.5,938.875 2095.5,930.972C2095.5,923.069 2097.08,917 2100.25,912.625C2103.4,908.361 2107.9,906.181 2113.74,906.181C2119.44,906.181 2123.94,908.361 2127.24,912.625C2130.39,917 2131.97,923.069 2131.97,930.972C2131.97,938.875 2130.39,945.083 2127.24,949.333C2123.94,953.708 2119.44,955.903 2113.74,955.903C2107.9,955.903 2103.4,953.708 2100.25,949.333Z" style="fill:rgb(102,106,107);fill-rule:nonzero;"/>
        <path d="M2183.92,987.986C2194.74,987.986 2202.63,985.319 2207.74,979.847C2210.65,976.806 2212.6,972.792 2213.69,967.931C2214.79,963.194 2215.28,955.653 2215.28,945.569L2215.28,898.764L2203.6,898.764L2203.6,906.181C2198.37,900.347 2192.18,897.431 2185,897.431C2176.74,897.431 2170.06,900.458 2164.82,906.667C2159.6,912.861 2157.04,920.764 2157.04,930.611C2157.04,940.208 2159.36,947.75 2163.85,953.347C2168.47,958.931 2174.67,961.736 2182.46,961.736C2187.07,961.736 2191.21,960.514 2194.97,958.208C2198.74,955.778 2201.54,952.486 2203.6,948.236L2203.6,958.333C2203.6,972.306 2197.04,979.236 2183.92,979.236C2177.22,979.236 2170.54,977.653 2163.74,974.5L2162.39,984.583C2169.32,986.889 2176.5,987.986 2183.92,987.986ZM2184.51,951.514C2174.56,951.514 2169.57,944.472 2169.57,930.486C2169.57,922.958 2171.15,917 2174.18,912.625C2177.22,908.361 2181.36,906.181 2186.83,906.181C2192.9,906.181 2198.5,908.847 2203.6,914.194L2203.6,940.944C2197.65,948 2191.21,951.514 2184.51,951.514Z" style="fill:rgb(102,106,107);fill-rule:nonzero;"/>
        <path d="M2249.01,963.194L2249.01,898.764L2237.35,898.764L2237.35,963.194L2249.01,963.194ZM2249.01,886.972L2249.01,875.306L2237.35,875.306L2237.35,886.972L2249.01,886.972Z" style="fill:rgb(102,106,107);fill-rule:nonzero;"/>
        <path d="M2319.17,951.764C2312.11,954.556 2306.03,955.903 2301.17,955.903C2287.92,955.903 2280.38,948.236 2278.68,932.806L2319.4,932.806L2319.53,929.278C2319.53,919.069 2317.33,911.167 2313.08,905.569C2308.83,900.097 2302.75,897.306 2294.97,897.306C2286.71,897.306 2280.01,900.458 2274.67,906.667C2269.44,912.861 2266.76,920.889 2266.76,930.736C2266.76,940.694 2269.81,948.847 2275.76,955.167C2281.72,961.486 2289.5,964.653 2298.99,964.653C2304.57,964.653 2311.38,963.431 2319.17,961.125L2319.17,951.764ZM2294.36,906.056C2303.24,906.056 2307.74,912.014 2307.74,924.042L2279.29,924.042C2280.26,912.014 2285.36,906.056 2294.36,906.056Z" style="fill:rgb(102,106,107);fill-rule:nonzero;"/>
    </g>
</svg>