<svg xmlns="http://www.w3.org/2000/svg" xmlns:xlink="http://www.w3.org/1999/xlink" version="1.1" id="Ebene_1" x="0px" y="0px" width="400.568px" height="279.971px" viewBox="0 0 400.568 279.971" enable-background="new 0 0 400.568 279.971" xml:space="preserve">
<g>
	<path fill="#6E9F70" d="M2.616,264.891l5.023-8.652c1.117-1.957,3.494-1.957,4.748-0.978c0.701,0.421,12.005,8.657,21.081,8.657   c7.258,0,12.703-4.747,12.703-10.75c0-7.123-6.004-12.005-17.729-16.753c-13.123-5.305-26.245-13.683-26.245-30.152   c0-12.425,9.216-26.804,31.408-26.804c14.239,0,25.127,7.26,27.92,9.354c1.396,0.837,1.815,3.211,0.838,4.605l-5.306,7.959   c-1.117,1.674-3.209,2.791-4.885,1.674c-1.117-0.7-11.726-7.678-19.405-7.678c-7.956,0-12.281,5.304-12.281,9.772   c0,6.563,5.163,11.029,16.47,15.636c13.542,5.44,29.174,13.538,29.174,31.551c0,14.374-12.421,27.639-32.103,27.639   c-17.591,0-27.92-8.236-30.713-10.89C2.057,267.825,1.359,267.126,2.616,264.891z"/>
	<path fill="#6E9F70" d="M127.126,179.459c12.561,0,24.569,4.886,34.062,12.983c1.116,1.115,1.256,2.791,0.139,3.907l-8.653,9.076   c-1.117,1.114-2.374,1.114-3.631,0c-6.004-5.306-13.401-8.099-21.078-8.099c-17.451,0-31.271,14.938-31.271,32.389   c0,17.307,13.82,31.967,31.408,31.967c7.819,0,13.823-2.372,16.613-3.489v-11.867h-11.168c-1.536,0-2.653-1.117-2.653-2.512v-11.03   c0-1.534,1.117-2.651,2.653-2.651h26.804c1.399,0,2.51,1.257,2.51,2.651v35.737c0,1.116-0.556,1.814-1.11,2.235   c0,0-14.383,9.074-34.623,9.074c-27.78,0-50.115-22.059-50.115-49.979C77.011,201.936,99.346,179.459,127.126,179.459z"/>
	<path fill="#6E9F70" d="M193.56,181.554c0.143-1.117,0.98-2.095,2.513-2.095h2.234c1.117,0,1.955,0.557,2.374,1.396l30.713,65.888   c0.276,0,0.276,0,0.415,0l30.713-65.888c0.419-0.84,1.117-1.396,2.374-1.396h2.234c1.532,0,2.37,0.978,2.514,2.095l16.47,93.81   c0.419,1.955-0.701,3.21-2.514,3.21h-12.703c-1.253,0-2.374-1.119-2.652-2.097l-8.232-52.906c-0.143,0-0.422,0-0.422,0   l-24.433,54.861c-0.273,0.838-1.11,1.539-2.371,1.539h-2.513c-1.254,0-1.955-0.701-2.371-1.539l-24.712-54.861c0,0-0.272,0-0.415,0   l-8.096,52.906c-0.14,0.978-1.257,2.097-2.51,2.097h-12.567c-1.813,0-2.933-1.255-2.649-3.21L193.56,181.554z"/>
	<path fill="#6E9F70" d="M348.358,179.459c27.92,0,50.255,22.477,50.255,50.394c0,27.92-22.335,50.118-50.255,50.118   s-50.115-22.198-50.115-50.118C298.243,201.936,320.438,179.459,348.358,179.459z M348.358,261.823   c17.588,0,32.103-14.379,32.103-31.97c0-17.588-14.515-32.246-32.103-32.246c-17.587,0-31.967,14.658-31.967,32.246   C316.391,247.444,330.771,261.823,348.358,261.823z"/>
</g>
<g>
	<path fill="#668E32" d="M2.547,175.161l5.023-8.654c1.117-1.955,3.491-1.955,4.748-0.978c0.698,0.419,12.005,8.655,21.078,8.655   c7.261,0,12.703-4.744,12.703-10.748c0-7.12-6.001-12.005-17.73-16.753c-13.118-5.304-26.241-13.679-26.241-30.151   c0-12.424,9.213-26.802,31.408-26.802c14.239,0,25.128,7.26,27.917,9.353c1.396,0.838,1.818,3.211,0.838,4.604l-5.303,7.959   c-1.117,1.674-3.212,2.791-4.888,1.674c-1.117-0.698-11.726-7.678-19.402-7.678c-7.959,0-12.284,5.304-12.284,9.772   c0,6.561,5.166,11.029,16.47,15.636c13.542,5.442,29.177,13.54,29.177,31.547c0,14.377-12.424,27.641-32.105,27.641   c-17.588,0-27.92-8.234-30.713-10.89C1.989,178.092,1.288,177.396,2.547,175.161z"/>
	<path fill="#668E32" d="M86.153,175.161l5.026-8.654c1.117-1.955,3.491-1.955,4.747-0.978c0.698,0.419,12.002,8.655,21.078,8.655   c7.258,0,12.701-4.744,12.701-10.748c0-7.12-6.002-12.005-17.725-16.753c-13.122-5.304-26.244-13.679-26.244-30.151   c0-12.424,9.209-26.802,31.408-26.802c14.235,0,25.127,7.26,27.92,9.353c1.396,0.838,1.812,3.211,0.838,4.604l-5.307,7.959   c-1.117,1.674-3.211,2.791-4.884,1.674c-1.117-0.698-11.729-7.678-19.405-7.678c-7.956,0-12.285,5.304-12.285,9.772   c0,6.561,5.167,11.029,16.474,15.636c13.538,5.442,29.174,13.54,29.174,31.547c0,14.377-12.424,27.641-32.106,27.641   c-17.59,0-27.92-8.234-30.709-10.89C85.594,178.092,84.899,177.396,86.153,175.161z"/>
	<path fill="#668E32" d="M218.619,89.73c27.921,0,50.255,22.475,50.255,50.393c0,27.917-22.334,50.115-50.255,50.115   c-27.92,0-50.115-22.198-50.115-50.115C168.503,112.205,190.699,89.73,218.619,89.73z M218.619,172.092   c17.588,0,32.106-14.379,32.106-31.969c0-17.59-14.519-32.247-32.106-32.247c-17.587,0-31.966,14.657-31.966,32.247   C186.653,157.713,201.032,172.092,218.619,172.092z"/>
	<path fill="#668E32" d="M305.292,91.824c0.137-1.116,0.974-2.093,2.514-2.093h2.233c1.117,0,1.955,0.557,2.377,1.396l30.707,65.888   c0.279,0,0.279,0,0.422,0l30.706-65.888c0.423-0.839,1.117-1.396,2.377-1.396h2.228c1.54,0,2.378,0.978,2.514,2.093l16.477,93.808   c0.416,1.955-0.701,3.211-2.513,3.211h-12.704c-1.26,0-2.37-1.118-2.649-2.096l-8.241-52.905c-0.137,0-0.416,0-0.416,0   l-24.433,54.86c-0.279,0.838-1.117,1.537-2.37,1.537h-2.514c-1.254,0-1.955-0.699-2.371-1.537l-24.711-54.86c0,0-0.279,0-0.416,0   l-8.099,52.905c-0.144,0.978-1.254,2.096-2.514,2.096h-12.561c-1.818,0-2.936-1.256-2.653-3.211L305.292,91.824z"/>
</g>
<g>
	<path fill="#006633" d="M0.665,85.431l5.023-8.654c1.117-1.955,3.49-1.955,4.744-0.978c0.701,0.419,12.009,8.656,21.081,8.656   c7.258,0,12.704-4.746,12.704-10.75c0-7.118-6.001-12.004-17.73-16.751C13.368,51.65,0.242,43.273,0.242,26.801   C0.242,14.379,9.458,0,31.653,0C45.892,0,56.778,7.259,59.57,9.352c1.396,0.838,1.818,3.212,0.838,4.606l-5.303,7.958   c-1.117,1.675-3.212,2.791-4.887,1.675c-1.117-0.7-11.727-7.678-19.403-7.678c-7.959,0-12.284,5.304-12.284,9.771   c0,6.563,5.163,11.029,16.471,15.637c13.541,5.442,29.177,13.538,29.177,31.547c0,14.376-12.424,27.639-32.106,27.639   c-17.587,0-27.92-8.235-30.713-10.89C0.106,88.364-0.595,87.666,0.665,85.431z"/>
	<path fill="#006633" d="M85.529,85.431l5.021-8.654c1.117-1.955,3.494-1.955,4.747-0.978c0.702,0.419,12.006,8.656,21.082,8.656   c7.258,0,12.703-4.746,12.703-10.75c0-7.118-6.001-12.004-17.73-16.751C98.229,51.65,85.107,43.273,85.107,26.801   C85.107,14.379,94.323,0,116.514,0c14.24,0,25.128,7.259,27.921,9.352c1.396,0.838,1.818,3.212,0.838,4.606l-5.304,7.958   c-1.12,1.675-3.211,2.791-4.887,1.675c-1.117-0.7-11.729-7.678-19.406-7.678c-7.955,0-12.281,5.304-12.281,9.771   c0,6.563,5.164,11.029,16.471,15.637c13.541,5.442,29.174,13.538,29.174,31.547c0,14.376-12.421,27.639-32.103,27.639   c-17.591,0-27.921-8.235-30.713-10.89C84.967,88.364,84.269,87.666,85.529,85.431z"/>
	<path fill="#006633" d="M186.302,2.093C186.442,0.978,187.28,0,188.819,0h2.23c1.121,0,1.955,0.557,2.374,1.396l30.713,65.887   c0.279,0,0.279,0,0.419,0l30.709-65.887C255.684,0.557,256.381,0,257.638,0h2.231c1.535,0,2.37,0.978,2.513,2.093L278.856,95.9   c0.419,1.955-0.698,3.212-2.51,3.212h-12.707c-1.257,0-2.37-1.117-2.652-2.096l-8.235-52.905c-0.14,0-0.416,0-0.416,0   l-24.433,54.861c-0.279,0.836-1.117,1.536-2.37,1.536h-2.517c-1.254,0-1.952-0.7-2.371-1.536l-24.708-54.861c0,0-0.279,0-0.419,0   l-8.096,52.905c-0.143,0.979-1.257,2.096-2.514,2.096h-12.563c-1.815,0-2.933-1.257-2.653-3.212L186.302,2.093z"/>
	<path fill="#006633" d="M350.313,0c27.92,0,50.255,22.476,50.255,50.393c0,27.918-22.335,50.115-50.255,50.115   s-50.115-22.197-50.115-50.115C300.198,22.476,322.393,0,350.313,0z M350.313,82.361c17.587,0,32.109-14.377,32.109-31.968   c0-17.589-14.522-32.247-32.109-32.247c-17.588,0-31.967,14.658-31.967,32.247C318.346,67.983,332.725,82.361,350.313,82.361z"/>
</g>
</svg>